<svg width="26" height="46" viewBox="0 0 26 46" fill="none" xmlns="http://www.w3.org/2000/svg">
<path d="M8.51131 17.6738C8.14982 17.0809 7.84587 16.4915 7.57741 15.8765M7.57741 15.8765C7.42969 15.5381 7.29271 15.192 7.1628 14.8333M7.57741 15.8765C7.92179 16.2933 8.32044 16.6772 8.69802 16.9386C8.81711 17.0211 8.96439 17.0504 9.1183 17.0577M7.57741 15.8765C7.29625 15.5361 7.05126 15.1738 6.88343 14.8381C6.72098 14.5132 6.3887 14.0822 6.31162 13.7354C6.26438 13.5227 6.61984 14.1708 6.67921 14.243C6.84107 14.4397 7.00036 14.638 7.1628 14.8333M7.1628 14.8333C7.13749 14.7634 7.11244 14.6931 7.08764 14.6222C6.82937 13.8843 6.21243 12.9292 6.21243 12.16C6.21243 12.0111 6.72593 12.5331 6.73172 12.5392C7.17803 13.0153 7.50994 13.5641 7.9045 14.0796C8.48145 14.8334 9.11605 15.677 9.56156 16.5185C9.73554 16.8471 10.0987 17.0436 9.66659 17.0436C9.49941 17.0436 9.30402 17.0666 9.1183 17.0577M7.1628 14.8333C7.39076 15.1074 7.62495 15.3757 7.88116 15.6258C8.33214 16.066 8.71483 16.5729 9.1183 17.0577M9.1183 17.0577C9.31063 17.2888 9.50768 17.5149 9.7191 17.7263C10.0171 18.0243 10.1828 17.7538 10.3492 17.4579C10.6518 16.9199 11.1369 16.5656 11.1369 15.935V14.208C11.1369 13.4499 11.3228 12.7291 11.347 11.9791C11.37 11.2662 11.7414 10.5713 11.7671 9.8786C11.7981 9.04171 12.0801 10.8371 12.0822 11.0339M12.0822 11.0339C12.0827 11.0864 12.0832 11.1389 12.0837 11.1914M12.0822 11.0339C12.0822 10.1974 12.3972 12.1409 12.3972 12.5451C12.3972 13.1608 12.3931 13.7665 12.433 14.3755M12.0822 11.0339C12.0822 11.0773 12.0826 11.1302 12.0837 11.1914M12.0837 11.1914C12.095 12.4767 12.0822 13.7628 12.0822 15.0482C12.0822 15.4374 12.1449 15.652 12.3155 15.9934C12.4715 16.3053 12.5156 16.0535 12.5189 15.7108M12.0837 11.1914C12.0944 11.8144 12.1662 13.299 12.433 14.3755M12.5189 15.7108C12.5192 15.6807 12.5192 15.6499 12.5189 15.6187M12.5189 15.7108C12.6965 15.8197 12.9675 15.9619 13.0507 15.9934C13.2425 16.0658 13.4297 16.0962 13.6109 16.0922M12.5189 15.7108C12.3474 15.6057 12.263 15.5317 12.5189 15.6187M12.5189 15.6187C12.516 15.3159 12.488 14.9772 12.4789 14.8965C12.4593 14.7223 12.4444 14.5488 12.433 14.3755M12.5189 15.6187C12.5353 15.6243 12.553 15.6305 12.5723 15.6375C12.9147 15.7607 13.2684 15.9172 13.6109 16.0922M12.433 14.3755C12.581 14.9725 12.789 15.444 13.0799 15.5733C13.696 15.8471 14.3754 15.6402 14.8186 15.1415C15.0976 14.8276 15.3708 14.4929 15.66 14.1797M15.66 14.1797C15.842 13.9825 16.0304 13.7939 16.2306 13.6245C16.4164 13.4674 16.5567 13.2278 16.7336 13.058M15.66 14.1797C15.6302 14.4509 15.5941 14.7161 15.5574 14.9677M15.66 14.1797C15.7648 13.225 15.7921 12.1961 15.4955 11.4248C15.2871 10.883 15.1319 10.3177 15.0287 9.75024C15.0259 9.73498 15.0234 9.71994 15.0211 9.7051M16.7336 13.058C16.802 12.9923 16.8759 12.937 16.96 12.901C17.0404 12.8665 17.017 13.0222 16.9784 13.1729M16.7336 13.058C16.8905 12.797 17.0563 12.541 17.2167 12.2825C17.2364 12.2508 17.5271 11.7239 17.5435 12.0024C17.557 12.2334 18.0687 11.8198 17.9412 11.9791C17.8093 12.144 17.2167 13.0527 17.0417 13.0527C17.0212 13.0936 17.0001 13.1336 16.9784 13.1729M16.7336 13.058C16.6109 13.262 16.4935 13.4691 16.3882 13.6828C16.303 13.8557 16.2382 14.0359 16.1829 14.2193M16.9784 13.1729C16.9469 13.296 16.9053 13.4157 16.9019 13.4255C16.7532 13.8609 16.0241 16.3206 15.653 16.5652C15.5351 16.6429 15.4557 16.5819 15.3958 16.4553M16.9784 13.1729C16.758 13.5718 16.4741 13.8939 16.1829 14.2193M15.3958 16.4553C15.3954 16.4544 15.3949 16.4535 15.3945 16.4527M15.3958 16.4553C15.537 16.1884 15.6263 15.9199 15.758 15.6316C15.9609 15.188 16.04 14.6932 16.1829 14.2193M15.3958 16.4553C15.3846 16.4764 15.3731 16.4974 15.3613 16.5185C15.3107 16.6084 15.3554 16.5303 15.3945 16.4527M15.3945 16.4527C15.297 16.244 15.2514 15.8608 15.1751 15.6232M15.3945 16.4527C15.4151 16.4119 15.4342 16.3712 15.4371 16.3551C15.4833 16.1012 15.4274 15.831 15.4663 15.5733C15.4948 15.3843 15.5263 15.1808 15.5574 14.9677M15.1751 15.6232C15.1181 15.4455 15.0438 15.3493 14.9178 15.4683C14.5421 15.8231 14.0979 16.0815 13.6109 16.0922M15.1751 15.6232C15.0627 15.8553 14.9704 16.0924 14.9178 16.3026C14.8267 16.6671 14.7861 16.7858 14.4394 16.5652C14.1803 16.4003 13.8996 16.2397 13.6109 16.0922M15.1751 15.6232C15.2887 15.3887 15.4228 15.1593 15.5574 14.9677M15.5574 14.9677C15.5894 14.9222 15.6213 14.8789 15.653 14.8381C15.8239 14.6184 16.0048 14.4182 16.1829 14.2193M15.0211 9.7051C14.8951 8.88925 15.4929 8.70107 16.0148 8.27406C16.2008 8.1218 16.2576 7.89075 16.4115 7.71976C16.5964 7.51432 16.2359 8.37521 16.18 8.50891L16.1781 8.51328C15.9658 9.02052 15.674 9.52284 15.653 10.0887C15.6435 10.3447 15.5982 10.7992 15.3379 10.322C15.227 10.1187 15.1217 9.91195 15.0211 9.7051ZM15.0211 9.7051C14.8639 9.38198 14.718 9.05849 14.5794 8.74667C14.3744 8.28527 14.2922 7.81052 14.0776 7.38135M9.96158 11.312C9.96158 10.8371 9.88448 10.4106 9.63687 10.0028C9.56814 9.88961 9.4132 9.7426 9.36885 9.63171C9.33475 9.54647 9.3059 9.34427 9.25546 9.28122C9.21106 9.22573 9.23409 9.13535 9.16268 9.09567C9.13613 9.08092 9.12866 9.63797 9.13691 9.6884C9.20355 10.0957 9.21938 10.4821 9.21938 10.8945M13.0264 6.17034C13.2479 5.75031 13.3786 5.3371 13.3498 4.86085C13.3418 4.72866 13.2734 4.52636 13.2859 4.40758C13.2954 4.31627 13.3642 4.12396 13.349 4.04466C13.3356 3.97486 13.3982 3.90566 13.3535 3.83726C13.3369 3.81183 13.0705 4.30109 13.0542 4.34955C12.9232 4.74087 12.757 5.09013 12.5646 5.45486" stroke="#BFB537" stroke-width="1.41176" stroke-linecap="round" stroke-linejoin="round"/>
<path d="M8.37238 19.744C6.66916 21.2039 4.8166 23.1958 3.97721 25.2761C2.74459 28.3308 2.41176 31.7295 2.41176 34.9997C2.41176 35.7986 2.79786 36.5976 2.79786 37.3966C2.79786 37.703 2.93575 37.942 2.95059 38.2239C2.95804 38.3655 3.10331 39.0689 3.10331 38.593C3.10331 36.4773 3.01644 34.3529 3.64634 32.3057C4.38408 29.9081 5.4796 27.6501 5.98815 25.1827C6.23258 23.9968 6.69429 22.9235 7.2439 21.8482C7.66101 21.0321 8.24599 19.5783 9.2845 19.3706C10.2956 19.1684 8.93547 20.7595 8.74571 20.9658C8.07957 21.6898 7.27129 22.2518 6.66694 23.0361C6.19517 23.6482 5.70727 24.2795 5.30088 24.9367C4.18163 26.7465 4.14045 29.0665 3.97725 31.1306C3.866 32.5375 3.94331 33.9752 3.94331 35.3857C3.94331 36.2194 3.86695 37.0469 3.86695 37.8802C3.86695 38.1245 4.09374 39.9049 4.18937 38.9366C4.32835 37.5294 4.30156 36.1121 4.40997 34.7027C4.59894 32.2461 4.88498 29.7766 5.32209 27.3506C5.73885 25.0376 6.33341 22.6727 7.15481 20.4652C7.25011 20.209 7.43397 19.6089 7.76148 19.5318C8.29595 19.4061 7.77744 21.3536 7.72754 21.5003C6.46642 25.2084 5.74576 29.126 4.85967 32.9378C4.54472 34.2927 4.40149 35.5999 4.40149 36.9893C4.40149 37.7585 4.23648 38.7759 4.63058 39.4796C4.93297 40.0196 4.90373 39.2006 4.91906 38.9536C5.06754 36.5614 5.0588 34.1609 5.24997 31.7712C5.45098 29.2586 5.66267 26.6103 6.70936 24.2833C7.07109 23.4791 7.52274 22.7726 7.9736 22.0349C8.02218 21.9553 7.99057 22.0727 7.99057 22.1367C7.99057 22.7488 7.99957 23.3617 7.98208 23.9736C7.92184 26.082 7.30721 28.126 6.69239 30.1294C6.20017 31.7332 5.84091 33.3282 5.66997 34.9997C5.61067 35.5794 5.61865 36.1654 5.6233 36.7475C5.6253 36.9967 5.61596 37.246 5.77603 37.4518C6.06201 37.8195 7.10095 40.9048 7.15481 40.6251C7.499 38.838 6.55517 33.4674 6.81118 31.6651C7.08124 29.7639 7.42373 27.864 7.83784 25.9888C7.97414 25.3716 9.30532 21.9803 9.81056 21.5003C10.0122 21.3088 8.97181 23.7037 9.06389 23.9397C9.47894 25.0032 9.37744 26.5218 9.22086 27.6264C8.78977 30.6673 7.25759 33.4322 7.46027 36.5736C7.48522 36.9604 7.77777 37.1539 8.06693 37.3669C8.17874 37.4493 8.30171 37.5152 8.41481 37.596C8.41481 37.596 8.59157 37.7205 8.59723 37.7063C8.6682 37.5289 8.60147 37.118 8.60147 36.9469C8.60147 35.7881 8.56436 34.6309 8.54208 33.4724C8.49703 31.1298 8.31059 28.6496 8.81359 26.3451C8.93673 25.781 10.2048 24.3413 10.7396 23.9736C10.9287 23.8436 10.7948 23.3033 12.2499 21.5003C12.3164 22.276 10.7756 25.8794 10.7439 26.6556C10.5863 30.5171 7.9142 34.6801 7.9142 38.5548C7.9142 39.1173 7.96905 39.6271 8.44875 39.976C8.49507 40.0097 8.89252 41.7589 8.94935 41.6263C9.02031 41.4607 8.96811 39.698 8.94935 39.539C8.82407 38.4775 8.61094 37.4293 8.49117 36.3657C8.31418 34.794 8.22681 33.2295 8.21966 31.6482C8.21395 30.3865 8.11604 29.056 8.35117 27.8088C8.43564 27.3607 8.68312 26.0165 9.21238 25.7936C9.27553 25.767 9.10845 28.6336 9.08935 28.793C8.74125 31.6989 8.47233 34.6438 8.38935 37.5706C8.35564 38.7598 8.33285 39.9678 8.41905 41.1554C8.46355 41.7685 8.75676 41.9313 9.06389 42.4663C9.34853 42.9621 9.37068 42.638 9.8403 42.8909C9.99834 42.976 10.2866 41.2439 10.2772 41.0578C10.1581 38.6963 9.82329 36.6609 9.82329 34.2954C9.82329 32.8221 9.70204 31.1453 10.2772 29.7433C10.3241 29.6291 12.1543 24.1781 12.2499 24.5379C12.3754 25.0101 10.7378 30.5308 10.7396 31.0118C10.7439 32.1346 10.7319 33.2575 10.7439 34.3803C10.7651 36.3597 10.7144 38.4961 11.1978 40.4299C11.3456 41.0208 11.5807 42.2017 12.2499 42.4663C12.6881 42.6395 15.3895 42.1184 14.9396 42.0214C15.2431 40.1569 12.975 37.4145 12.9372 35.5342C12.9171 34.5328 12.8819 33.5322 12.8778 32.5306C12.8756 31.9891 12.8283 31.4116 12.9584 30.8803C12.9995 30.7127 13.3919 29.9615 13.6839 30.2269C13.8412 30.3699 13.8741 30.6999 13.9087 30.8888C14.1542 32.2296 14.171 33.6252 14.2184 34.9827C14.2835 36.8455 14.1694 38.771 14.3754 40.6251C14.4329 41.143 14.571 41.8577 15.0924 42.1184C15.5507 42.3476 18.3056 40.7337 18.1087 40.4045C17.8433 39.9607 14.6543 40.8175 14.3457 40.4045C13.8651 39.7613 13.2481 41.7997 12.9372 41.0578C12.2986 39.5339 12.3372 35.1777 12.1905 33.5488C12.1294 32.8699 12.0533 32.1935 11.9572 31.5209C11.9356 31.3699 11.7372 31.8311 11.7324 31.8433C11.4907 32.4508 11.2995 33.0948 11.1724 33.7354C10.848 35.3704 10.8061 37.3255 11.096 38.9705C11.2626 39.916 11.4832 41.0691 11.9021 41.9487C12.03 42.2174 12.0742 41.6948 12.076 41.3972C12.0855 39.8316 12.1191 38.2691 12.1905 36.7051C12.2819 34.7057 12.2892 28.5848 12.8778 26.6556C12.9028 26.5737 13.0836 29.4778 13.336 29.6882C13.4782 29.8067 14.3889 27.6751 14.4118 27.8235C14.5557 28.7593 13.7212 32.249 13.7942 33.1924C13.9262 34.8995 13.8257 36.6511 14.1166 38.3427C14.1922 38.7822 15.1748 40.9259 15.6608 41.1554C16.1091 41.3671 15.6227 38.3093 15.6608 38.1263C16.036 36.3253 16.0851 34.5075 16.0851 32.6748C16.0851 32.5097 16.1429 31.56 16.1614 31.6482C16.4384 32.9636 16.3889 34.3808 16.5093 35.7166C16.5136 35.7639 16.8125 39.5287 17.3451 39.119C17.874 38.7121 17.7623 37.2078 17.7651 36.6457C17.7709 35.4579 17.7651 34.2699 17.7651 33.0821C17.7651 33.0247 17.7632 32.1711 18.0323 32.5645C18.2486 32.8806 18.2775 33.4657 18.3293 33.8203C18.4544 34.6759 18.4523 35.529 18.4523 36.3912C18.4523 37.3516 18.3643 38.1737 18.1087 39.0978C18.0297 39.3835 17.9352 39.6651 17.8414 39.9463C17.8164 40.0215 17.7263 40.2837 17.816 40.0227C18.0739 39.2723 18.4991 38.5851 18.8172 37.859C19.0985 37.2169 19.2638 36.5148 19.4069 35.8312C19.4299 35.721 19.4555 35.1929 19.5384 35.11C19.5961 35.0522 21.1344 34.3387 21.1344 34.4203C21.1344 34.8728 20.4285 37.2438 19.7227 36.5379C21.9652 36.1985 18.9109 38.9235 17.8414 39.293C17.4084 39.4426 17.0092 39.4991 16.5814 39.5942C16.5217 39.6075 16.3576 39.6796 16.3142 39.6748C16.0248 39.6426 15.8733 38.7773 15.822 38.5675C15.5526 37.4652 15.016 36.2892 15.016 35.1524C15.016 34.1109 14.9396 33.0911 14.9396 32.0385" stroke="#EE911B" stroke-width="1.41176" stroke-linecap="round" stroke-linejoin="round"/>
<path d="M5.13775 34.3766C5.00281 34.7424 5.18992 35.1483 5.55567 35.2832C5.92141 35.4182 6.3273 35.2311 6.46225 34.8653L5.13775 34.3766ZM6.17259 34.0261L5.60486 33.6066L6.17259 34.0261ZM6.30089 33.8464L5.694 33.4859L6.30089 33.8464ZM6.42336 33.6366L5.8847 33.1804L6.42336 33.6366ZM6.57888 33.48L6.07428 32.9864H6.07428L6.57888 33.48ZM6.72597 33.2753L7.2909 33.6985H7.2909L6.72597 33.2753ZM6.81475 33.102L7.42368 33.459L6.81475 33.102ZM6.93139 32.8883L7.56151 33.2064L6.93139 32.8883ZM7.15948 32.5418L6.60528 32.1046H6.60528L7.15948 32.5418ZM7.2813 32.4057L6.95352 33.0309H6.95352L7.2813 32.4057ZM7.34221 32.475L6.8455 32.9766H6.8455L7.34221 32.475ZM7.47829 32.6047L8.03865 32.1754L8.03865 32.1754L7.47829 32.6047ZM7.77701 32.9974L7.26271 33.4809H7.26271L7.77701 32.9974ZM8.06277 33.4081L8.64353 33.0069H8.64353L8.06277 33.4081ZM8.2319 33.6507L7.60177 33.9688H7.60177L8.2319 33.6507ZM8.36862 33.8291L7.79611 34.242H7.79611L8.36862 33.8291ZM8.52349 34.0197L9.06921 33.572H9.06921L8.52349 34.0197ZM8.62522 34.1615L9.2314 33.7998V33.7998L8.62522 34.1615ZM8.73344 34.3264L9.23014 33.8249L8.73344 34.3264ZM8.566 35.1265C8.91536 35.2995 9.33882 35.1565 9.51181 34.8071C9.68481 34.4578 9.54183 34.0343 9.19247 33.8613L8.566 35.1265ZM15.6978 36.2781C15.5628 36.6439 15.7499 37.0497 16.1157 37.1847C16.4814 37.3196 16.8873 37.1325 17.0222 36.7668L15.6978 36.2781ZM16.7326 35.9276L16.1649 35.5081L16.7326 35.9276ZM16.8609 35.7479L16.254 35.3874L16.8609 35.7479ZM16.9834 35.538L16.4447 35.0818L16.9834 35.538ZM17.1389 35.3814L16.6343 34.8878L17.1389 35.3814ZM17.286 35.1767L17.8509 35.6L17.286 35.1767ZM17.3748 35.0035L17.9837 35.3605L17.3748 35.0035ZM17.4914 34.7898L18.1215 35.1079L17.4914 34.7898ZM17.7195 34.4432L17.1653 34.006L17.7195 34.4432ZM17.8413 34.3072L17.5135 34.9324L17.8413 34.3072ZM17.9022 34.3765L17.4055 34.878L17.4055 34.878L17.9022 34.3765ZM18.0383 34.5061L18.5987 34.0769L18.0383 34.5061ZM18.337 34.8989L17.8227 35.3824H17.8227L18.337 34.8989ZM18.6228 35.3096L19.2035 34.9083L18.6228 35.3096ZM18.7919 35.5521L18.1618 35.8703L18.7919 35.5521ZM18.9286 35.7305L18.3561 36.1435L18.9286 35.7305ZM19.0835 35.9211L19.6292 35.4734L19.0835 35.9211ZM19.1852 36.063L19.7914 35.7013V35.7013L19.1852 36.063ZM19.2934 36.2279L19.7901 35.7263L19.2934 36.2279ZM19.126 37.028C19.4754 37.2009 19.8988 37.058 20.0718 36.7086C20.2448 36.3592 20.1018 35.9358 19.7525 35.7628L19.126 37.028ZM9.93775 39.1303C9.80281 39.496 9.98992 39.9019 10.3557 40.0369C10.7214 40.1718 11.1273 39.9847 11.2622 39.619L9.93775 39.1303ZM10.9726 38.7797L10.4049 38.3603L10.9726 38.7797ZM11.1009 38.6001L10.494 38.2396L11.1009 38.6001ZM11.2234 38.3902L10.6847 37.934L11.2234 38.3902ZM11.3789 38.2336L10.8743 37.74H10.8743L11.3789 38.2336ZM11.526 38.0289L12.0909 38.4521L11.526 38.0289ZM11.6147 37.8556L12.2237 38.2127L11.6147 37.8556ZM11.7314 37.642L12.3615 37.9601L11.7314 37.642ZM11.9595 37.2954L11.4053 36.8582L11.9595 37.2954ZM12.0813 37.1594L11.7535 37.7845L12.0813 37.1594ZM12.1422 37.2287L11.6455 37.7302L11.6455 37.7302L12.1422 37.2287ZM12.2783 37.3583L12.8387 36.9291L12.2783 37.3583ZM12.577 37.751L12.0627 38.2345L12.577 37.751ZM12.8628 38.1618L13.4435 37.7605L12.8628 38.1618ZM13.0319 38.4043L12.4018 38.7225L12.4018 38.7225L13.0319 38.4043ZM13.1686 38.5827L12.5961 38.9957V38.9957L13.1686 38.5827ZM13.3235 38.7733L13.8692 38.3256L13.3235 38.7733ZM13.4252 38.9151L14.0314 38.5535L13.4252 38.9151ZM13.5334 39.0801L14.0301 38.5785L13.5334 39.0801ZM13.366 39.8801C13.7154 40.0531 14.1388 39.9102 14.3118 39.5608C14.4848 39.2114 14.3418 38.788 13.9925 38.615L13.366 39.8801ZM7.26656 18.6723C7.55816 18.931 8.00431 18.9044 8.26306 18.6128C8.52181 18.3212 8.49519 17.8751 8.20359 17.6163L7.26656 18.6723ZM5.86757 15.5039L5.19965 15.7323L5.86757 15.5039ZM5.32251 9.58097L5.35727 10.286L5.32251 9.58097ZM6.5288 10.0091L6.1403 10.5985L6.5288 10.0091ZM8.12824 11.143L8.59063 10.6096L8.12824 11.143ZM10.4291 13.3274L9.83081 13.702L10.4291 13.3274ZM10.4693 13.1054L11.1656 12.9892V12.9892L10.4693 13.1054ZM10.3085 10.9368L9.60264 10.9443L10.3085 10.9368ZM10.992 7.12298L11.6528 7.3712L10.992 7.12298ZM12.042 5.8028L12.1544 6.49967L12.042 5.8028ZM13.3823 7.25777L12.7146 7.48678L13.3823 7.25777ZM14.8924 12.5068L14.1866 12.5177L14.8924 12.5068ZM15.223 13.1807L14.5967 12.855L15.223 13.1807ZM16.8984 11.2619L16.3982 10.7638L16.8984 11.2619ZM18.9535 9.97742L18.7952 9.28951L18.9535 9.97742ZM20.3737 13.6485L20.9897 13.9932C21.0154 13.9472 21.0359 13.8985 21.0508 13.8479L20.3737 13.6485ZM18.9535 15.7675L19.5295 16.1755V16.1755L18.9535 15.7675ZM17.1795 16.9282C16.8231 17.0863 16.6624 17.5033 16.8205 17.8597C16.9786 18.216 17.3957 18.3767 17.752 18.2186L17.1795 16.9282ZM6.49103 10.549C6.49688 10.9388 6.81762 11.2501 7.20743 11.2442C7.59723 11.2384 7.90849 10.9176 7.90264 10.5278L6.49103 10.549ZM7.19683 5.59152L6.74507 5.04913H6.74507L7.19683 5.59152ZM9.85253 7.30475L9.28377 7.72283V7.72283L9.85253 7.30475ZM10.4208 8.12503L9.83351 8.51672C10.0061 8.77547 10.3277 8.89077 10.6254 8.80061C10.9231 8.71044 11.1266 8.43606 11.1266 8.12503H10.4208ZM11.1266 7.58244C11.1266 7.19259 10.8106 6.87655 10.4208 6.87655C10.0309 6.87655 9.71487 7.19259 9.71487 7.58244H11.1266ZM11.08 3.40799L10.4246 3.14572C10.4192 3.1593 10.4142 3.17304 10.4096 3.18693L11.08 3.40799ZM13.48 1.03117L13.2349 0.369189V0.369189L13.48 1.03117ZM15.2696 3.88332L15.9552 3.71524V3.71524L15.2696 3.88332ZM13.7069 7.73687C13.7069 8.12672 14.0229 8.44275 14.4127 8.44275C14.8026 8.44275 15.1186 8.12672 15.1186 7.73687H13.7069ZM14.7363 7.12C14.4809 7.41455 14.5127 7.86036 14.8072 8.11575C15.1017 8.37115 15.5476 8.33941 15.8029 8.04487L14.7363 7.12ZM17.3893 6.23429L17.3243 5.53141H17.3243L17.3893 6.23429ZM18.7623 6.4722L18.107 6.73446V6.73447L18.7623 6.4722ZM18.4874 8.91806C18.4874 9.30791 18.8034 9.62394 19.1933 9.62394C19.5831 9.62394 19.8992 9.30791 19.8992 8.91806H18.4874ZM7.05775 25.8201C6.92281 26.1858 7.10992 26.5917 7.47567 26.7267C7.84141 26.8616 8.2473 26.6745 8.38225 26.3087L7.05775 25.8201ZM8.09259 25.4695L7.52486 25.0501L8.09259 25.4695ZM8.22089 25.2898L7.614 24.9294L8.22089 25.2898ZM8.34336 25.08L7.8047 24.6238H7.8047L8.34336 25.08ZM8.49888 24.9234L7.99428 24.4298H7.99428L8.49888 24.9234ZM8.64597 24.7187L9.2109 25.1419L8.64597 24.7187ZM8.73475 24.5454L9.34369 24.9025L8.73475 24.5454ZM8.85139 24.3317L9.48151 24.6499L8.85139 24.3317ZM9.07948 23.9852L8.52528 23.548L8.52528 23.548L9.07948 23.9852ZM9.2013 23.8492L8.87352 24.4743L9.2013 23.8492ZM9.26221 23.9185L8.7655 24.42H8.7655L9.26221 23.9185ZM9.39829 24.0481L9.95865 23.6189L9.39829 24.0481ZM9.69701 24.4408L9.18271 24.9243H9.18271L9.69701 24.4408ZM9.98277 24.8515L10.5635 24.4503L9.98277 24.8515ZM10.1519 25.0941L9.52177 25.4123H9.52177L10.1519 25.0941ZM10.2886 25.2725L9.71611 25.6854V25.6854L10.2886 25.2725ZM10.4435 25.4631L10.9892 25.0154L10.4435 25.4631ZM10.5452 25.6049L11.1514 25.2432L10.5452 25.6049ZM10.6534 25.7699L11.1501 25.2683L10.6534 25.7699ZM10.486 26.5699C10.8354 26.7429 11.2588 26.5999 11.4318 26.2506C11.6048 25.9012 11.4618 25.4778 11.1125 25.3048L10.486 26.5699ZM15.6978 26.7708C15.5628 27.1366 15.7499 27.5424 16.1157 27.6774C16.4814 27.8123 16.8873 27.6252 17.0222 27.2595L15.6978 26.7708ZM16.7326 26.4203L16.1649 26.0008L16.7326 26.4203ZM16.8609 26.2406L16.254 25.8801L16.8609 26.2406ZM16.9834 26.0307L16.4447 25.5745L16.9834 26.0307ZM17.1389 25.8741L16.6343 25.3805L17.1389 25.8741ZM17.286 25.6694L17.8509 26.0927L17.286 25.6694ZM17.3748 25.4962L17.9837 25.8532L17.3748 25.4962ZM17.4914 25.2825L18.1215 25.6006L17.4914 25.2825ZM17.7195 24.9359L17.1653 24.4988V24.4988L17.7195 24.9359ZM17.8413 24.7999L17.5135 25.4251L17.8413 24.7999ZM17.9022 24.8692L17.4055 25.3708H17.4055L17.9022 24.8692ZM18.0383 24.9988L18.5987 24.5696L18.0383 24.9988ZM18.337 25.3916L17.8227 25.8751H17.8227L18.337 25.3916ZM18.6228 25.8023L19.2035 25.401V25.401L18.6228 25.8023ZM18.7919 26.0448L18.1618 26.363L18.7919 26.0448ZM18.9286 26.2233L18.3561 26.6362V26.6362L18.9286 26.2233ZM19.0835 26.4138L19.6292 25.9661L19.0835 26.4138ZM19.1852 26.5557L19.7914 26.194L19.1852 26.5557ZM19.2934 26.7206L19.7901 26.219L19.2934 26.7206ZM19.126 27.5207C19.4754 27.6937 19.8988 27.5507 20.0718 27.2013C20.2448 26.852 20.1018 26.4285 19.7525 26.2555L19.126 27.5207ZM10.8978 30.5737C10.7628 30.9395 10.9499 31.3454 11.3157 31.4803C11.6814 31.6152 12.0873 31.4281 12.2222 31.0624L10.8978 30.5737ZM11.9326 30.2232L11.3649 29.8037L11.9326 30.2232ZM12.0609 30.0435L11.454 29.683L12.0609 30.0435ZM12.1834 29.8336L11.6447 29.3775L12.1834 29.8336ZM12.3389 29.6771L11.8343 29.1835L12.3389 29.6771ZM12.486 29.4724L13.0509 29.8956L12.486 29.4724ZM12.5747 29.2991L13.1837 29.6561L12.5747 29.2991ZM12.6914 29.0854L13.3215 29.4035L12.6914 29.0854ZM12.9195 28.7389L12.3653 28.3017V28.3017L12.9195 28.7389ZM13.0413 28.6028L12.7135 29.228L13.0413 28.6028ZM13.1022 28.6721L12.6055 29.1737L12.6055 29.1737L13.1022 28.6721ZM13.2383 28.8017L13.7987 28.3725L13.2383 28.8017ZM13.537 29.1945L13.0227 29.678L13.537 29.1945ZM13.8228 29.6052L14.4035 29.204H14.4035L13.8228 29.6052ZM13.9919 29.8478L13.3618 30.1659L13.9919 29.8478ZM14.1286 30.0262L13.5561 30.4391V30.4391L14.1286 30.0262ZM14.2835 30.2168L14.8292 29.769H14.8292L14.2835 30.2168ZM14.3852 30.3586L14.9914 29.9969L14.3852 30.3586ZM14.4934 30.5235L14.9901 30.022L14.4934 30.5235ZM14.326 31.3236C14.6754 31.4966 15.0988 31.3536 15.2718 31.0042C15.4448 30.6549 15.3018 30.2314 14.9525 30.0584L14.326 31.3236ZM6.46225 34.8653C6.49766 34.7693 6.57239 34.6729 6.74032 34.4456L5.60486 33.6066C5.50169 33.7463 5.26103 34.0425 5.13775 34.3766L6.46225 34.8653ZM6.74032 34.4456C6.75489 34.4258 6.84722 34.3089 6.90779 34.2069L5.694 33.4859C5.69429 33.4854 5.69289 33.4878 5.68884 33.4937C5.68479 33.4997 5.67923 33.5075 5.67129 33.5182C5.66312 33.5293 5.65437 33.5408 5.64283 33.5561C5.63219 33.5701 5.61848 33.5882 5.60486 33.6066L6.74032 34.4456ZM6.90779 34.2069C6.92912 34.171 6.9463 34.1382 6.95797 34.1155C6.96365 34.1044 6.96955 34.0927 6.97332 34.0853C6.97767 34.0767 6.98062 34.071 6.98317 34.0661C6.99466 34.0441 6.98627 34.0641 6.96203 34.0928L5.8847 33.1804C5.80712 33.272 5.7583 33.3619 5.73229 33.4116C5.72265 33.43 5.70425 33.4664 5.70219 33.4704C5.69533 33.4838 5.69347 33.4868 5.694 33.4859L6.90779 34.2069ZM6.96203 34.0928C6.96177 34.0931 6.9633 34.0912 6.96781 34.0866C6.97252 34.0817 6.97904 34.0752 6.98943 34.0652C6.99462 34.0602 7.0001 34.055 7.00674 34.0487C7.01301 34.0427 7.02066 34.0354 7.02835 34.028C7.04382 34.0132 7.06303 33.9945 7.08349 33.9736L6.07428 32.9864C6.05804 33.003 6.04868 33.0112 6.01003 33.0484C5.97897 33.0784 5.93242 33.124 5.8847 33.1804L6.96203 34.0928ZM7.08349 33.9736C7.16202 33.8933 7.2173 33.8105 7.24478 33.7688C7.25243 33.7571 7.25972 33.7459 7.26537 33.7372C7.27152 33.7277 7.27591 33.7209 7.28012 33.7145C7.28872 33.7014 7.29137 33.6979 7.2909 33.6985L6.16104 32.852C6.13607 32.8854 6.11517 32.9166 6.10046 32.9389C6.09302 32.9502 6.08582 32.9614 6.08034 32.9698C6.07437 32.9791 6.07 32.9858 6.06588 32.9921C6.06189 32.9981 6.0591 33.0022 6.05707 33.0052C6.05506 33.0081 6.05429 33.0091 6.05455 33.0087C6.0547 33.0085 6.06138 32.9996 6.07428 32.9864L7.08349 33.9736ZM7.2909 33.6985C7.36169 33.604 7.40275 33.5102 7.41739 33.4773C7.42949 33.4502 7.42899 33.4508 7.43342 33.4412C7.43546 33.4368 7.43184 33.4451 7.42368 33.459L6.20581 32.745C6.18146 32.7865 6.16342 32.824 6.15173 32.8493C6.14577 32.8622 6.14052 32.874 6.13669 32.8827C6.13198 32.8934 6.13048 32.8968 6.12766 32.9032C6.12285 32.914 6.12373 32.9114 6.12757 32.9041C6.13178 32.8962 6.14259 32.8767 6.16104 32.852L7.2909 33.6985ZM7.42368 33.459C7.47148 33.3775 7.51805 33.2925 7.56151 33.2064L6.30126 32.5702C6.27198 32.6282 6.23969 32.6872 6.20581 32.745L7.42368 33.459ZM7.56151 33.2064C7.59538 33.1394 7.64148 33.0705 7.71368 32.979L6.60528 32.1046C6.50273 32.2346 6.39413 32.3862 6.30126 32.5702L7.56151 33.2064ZM7.71367 32.979C7.72248 32.9678 7.73003 32.9575 7.7302 32.9573C7.73243 32.9542 7.73483 32.9509 7.73634 32.9489C7.73995 32.9439 7.74327 32.9394 7.74712 32.9342C7.75517 32.9233 7.76246 32.9137 7.76807 32.9066C7.77743 32.8949 7.77016 32.9053 7.75094 32.9242C7.74506 32.93 7.7081 32.9671 7.64877 33.0047C7.62019 33.0228 7.55332 33.0625 7.45778 33.0879C7.36314 33.1129 7.16565 33.1421 6.95352 33.0309L7.60907 31.7806C7.39461 31.6681 7.19419 31.6972 7.0961 31.7232C6.99712 31.7494 6.92629 31.7911 6.8933 31.812C6.82517 31.8552 6.77767 31.9013 6.76013 31.9186C6.71759 31.9605 6.68257 32.0035 6.66483 32.0258C6.64334 32.0527 6.62419 32.0783 6.61155 32.0954C6.58576 32.1303 6.59862 32.113 6.60528 32.1046L7.71367 32.979ZM6.95352 33.0309C6.90183 33.0038 6.86351 32.9751 6.83894 32.9547C6.81382 32.9339 6.79525 32.9153 6.78362 32.9029C6.77169 32.8903 6.76303 32.88 6.75819 32.874C6.75324 32.868 6.75005 32.8637 6.74945 32.8629C6.74906 32.8624 6.74909 32.8624 6.75211 32.8665C6.75416 32.8693 6.75947 32.8766 6.76528 32.8842C6.77118 32.892 6.78066 32.9044 6.79243 32.9186C6.8038 32.9322 6.82188 32.9532 6.8455 32.9766L7.83892 31.9735C7.85813 31.9925 7.87167 32.0084 7.87838 32.0164C7.88548 32.025 7.89019 32.0312 7.89122 32.0326C7.89215 32.0338 7.89249 32.0343 7.88949 32.0302C7.88747 32.0275 7.88236 32.0205 7.87679 32.0131C7.86707 32.0002 7.84329 31.9689 7.81101 31.9347C7.79405 31.9167 7.77014 31.8929 7.73966 31.8676C7.70975 31.8429 7.66609 31.8105 7.60907 31.7806L6.95352 33.0309ZM6.8455 32.9766C6.87217 33.003 6.89673 33.0248 6.91337 33.0393C6.92169 33.0465 6.9298 33.0534 6.93527 33.0581C6.94147 33.0635 6.9452 33.0667 6.94847 33.0695C6.95508 33.0753 6.95348 33.0741 6.9486 33.0693C6.94331 33.064 6.93178 33.052 6.91792 33.0339L8.03865 32.1754C7.97513 32.0925 7.90843 32.0335 7.87677 32.0059C7.86819 31.9984 7.85998 31.9913 7.85423 31.9864C7.84776 31.9809 7.84391 31.9776 7.84037 31.9745C7.83328 31.9683 7.83448 31.9691 7.83892 31.9735L6.8455 32.9766ZM6.91792 33.0339C6.95988 33.0887 6.98712 33.13 7.04939 33.2167C7.10275 33.291 7.17368 33.3862 7.26271 33.4809L8.29131 32.5139C8.26648 32.4875 8.2383 32.452 8.1959 32.3929C8.16239 32.3463 8.09721 32.2518 8.03865 32.1754L6.91792 33.0339ZM7.26271 33.4809C7.27856 33.4978 7.29844 33.5233 7.33374 33.5783C7.35692 33.6145 7.42584 33.7281 7.48201 33.8093L8.64353 33.0069C8.60226 32.9471 8.58778 32.9186 8.52218 32.8163C8.4687 32.7329 8.39442 32.6236 8.29131 32.5139L7.26271 33.4809ZM7.48201 33.8093C7.50595 33.844 7.52883 33.8744 7.54645 33.8974C7.56886 33.9267 7.57435 33.9334 7.58834 33.9519C7.60931 33.9797 7.60743 33.98 7.60177 33.9688L8.86202 33.3326C8.81078 33.231 8.75308 33.1517 8.71525 33.1015C8.66576 33.036 8.66164 33.0331 8.64353 33.0069L7.48201 33.8093ZM7.60177 33.9688C7.65829 34.0808 7.72904 34.1642 7.75857 34.199C7.76716 34.2091 7.77555 34.2187 7.78138 34.2255C7.78794 34.2331 7.792 34.2378 7.79558 34.242C7.80308 34.2508 7.80128 34.2492 7.79611 34.242L8.94113 33.4162C8.91462 33.3794 8.88911 33.3487 8.87204 33.3286C8.86335 33.3183 8.8549 33.3086 8.84894 33.3017C8.84225 33.294 8.83808 33.2891 8.83428 33.2847C8.82648 33.2755 8.82743 33.2762 8.83162 33.2819C8.83603 33.288 8.84834 33.3055 8.86202 33.3325L7.60177 33.9688ZM7.79611 34.242C7.86207 34.3335 7.95487 34.4395 7.97777 34.4674L9.06921 33.572C8.98571 33.4702 8.97429 33.4621 8.94113 33.4162L7.79611 34.242ZM7.97777 34.4674C7.99402 34.4872 8.00145 34.4969 8.00603 34.5032C8.00967 34.5082 8.01338 34.5137 8.01905 34.5232L9.2314 33.7998C9.17435 33.7042 9.12199 33.6363 9.06921 33.572L7.97777 34.4674ZM8.01905 34.5232C8.02151 34.5273 8.02461 34.5328 8.03461 34.5505C8.04274 34.5649 8.05589 34.5882 8.07082 34.6128C8.09688 34.6559 8.15207 34.7441 8.23673 34.828L9.23014 33.8249C9.24233 33.8369 9.25176 33.8476 9.25856 33.8557C9.26538 33.8638 9.27037 33.8704 9.27354 33.8747C9.27673 33.8791 9.27869 33.8821 9.27938 33.8831C9.28007 33.8842 9.27992 33.884 9.27879 33.8822C9.27766 33.8803 9.27594 33.8774 9.27336 33.8729C9.2707 33.8683 9.26778 33.8631 9.2638 33.8561C9.26026 33.8498 9.2551 33.8407 9.25009 33.8319C9.24491 33.8228 9.23851 33.8117 9.2314 33.7998L8.01905 34.5232ZM8.23673 34.828C8.22081 34.8122 8.20968 34.7991 8.20348 34.7915C8.20026 34.7875 8.19787 34.7844 8.19642 34.7825C8.19568 34.7815 8.19513 34.7807 8.19478 34.7802C8.1946 34.78 8.19446 34.7798 8.19437 34.7797C8.19433 34.7796 8.1943 34.7796 8.19428 34.7795C8.19425 34.7795 8.19424 34.7795 8.19424 34.7795C8.19424 34.7795 8.19425 34.7795 8.19427 34.7795C8.1943 34.7796 8.19433 34.7796 8.19437 34.7797C8.19446 34.7798 8.19458 34.78 8.19475 34.7802C8.19509 34.7807 8.19557 34.7814 8.19623 34.7824C8.19766 34.7844 8.19935 34.7869 8.20199 34.7908C8.2063 34.7971 8.21524 34.8103 8.22456 34.8235C8.24248 34.849 8.27776 34.8979 8.32675 34.9492C8.37686 35.0017 8.45522 35.0716 8.566 35.1265L9.19247 33.8613C9.27208 33.9008 9.32293 33.9483 9.34774 33.9742C9.36065 33.9878 9.36949 33.9986 9.37399 34.0043C9.37845 34.01 9.38054 34.0131 9.37915 34.0111C9.37729 34.0085 9.37524 34.0055 9.36855 33.9956C9.36318 33.9878 9.35375 33.9739 9.34317 33.9591C9.33234 33.9439 9.31761 33.9239 9.29974 33.9019C9.28185 33.8799 9.25866 33.8531 9.23014 33.8249L8.23673 34.828ZM17.0222 36.7668C17.0577 36.6708 17.1324 36.5743 17.3003 36.347L16.1649 35.5081C16.0617 35.6477 15.821 35.944 15.6978 36.2781L17.0222 36.7668ZM17.3003 36.347C17.3149 36.3273 17.4072 36.2103 17.4678 36.1083L16.254 35.3874C16.2543 35.3869 16.2529 35.3893 16.2488 35.3952C16.2448 35.4011 16.2392 35.4089 16.2313 35.4197C16.2231 35.4307 16.2144 35.4423 16.2028 35.4575C16.1922 35.4716 16.1785 35.4897 16.1649 35.5081L17.3003 36.347ZM17.4678 36.1083C17.4891 36.0724 17.5063 36.0396 17.518 36.0169C17.5236 36.0059 17.5295 35.9942 17.5333 35.9868C17.5377 35.9782 17.5406 35.9724 17.5432 35.9676C17.5547 35.9456 17.5463 35.9656 17.522 35.9942L16.4447 35.0818C16.3671 35.1734 16.3183 35.2633 16.2923 35.313C16.2827 35.3315 16.2643 35.3678 16.2622 35.3719C16.2553 35.3852 16.2535 35.3883 16.254 35.3874L17.4678 36.1083ZM17.522 35.9942C17.5218 35.9945 17.5233 35.9927 17.5278 35.988C17.5325 35.9832 17.539 35.9767 17.5494 35.9667C17.5546 35.9617 17.5601 35.9565 17.5667 35.9501C17.573 35.9441 17.5807 35.9368 17.5883 35.9295C17.6038 35.9146 17.623 35.896 17.6435 35.875L16.6343 34.8878C16.618 34.9044 16.6087 34.9127 16.57 34.9499C16.539 34.9798 16.4924 35.0255 16.4447 35.0818L17.522 35.9942ZM17.6435 35.875C17.722 35.7948 17.7773 35.7119 17.8048 35.6702C17.8124 35.6586 17.8197 35.6474 17.8254 35.6386C17.8315 35.6291 17.8359 35.6224 17.8401 35.6159C17.8487 35.6029 17.8514 35.5993 17.8509 35.6L16.721 34.7535C16.6961 34.7868 16.6752 34.818 16.6605 34.8404C16.653 34.8517 16.6458 34.8628 16.6403 34.8713C16.6344 34.8805 16.63 34.8873 16.6259 34.8935C16.6219 34.8996 16.6191 34.9037 16.6171 34.9066C16.6151 34.9095 16.6143 34.9105 16.6146 34.9102C16.6147 34.91 16.6214 34.901 16.6343 34.8878L17.6435 35.875ZM17.8509 35.6C17.9217 35.5055 17.9627 35.4117 17.9774 35.3788C17.9895 35.3516 17.989 35.3522 17.9934 35.3426C17.9955 35.3382 17.9918 35.3466 17.9837 35.3605L16.7658 34.6464C16.7415 34.688 16.7234 34.7254 16.7117 34.7507C16.7058 34.7636 16.7005 34.7755 16.6967 34.7841C16.692 34.7948 16.6905 34.7983 16.6877 34.8046C16.6829 34.8154 16.6837 34.8129 16.6876 34.8056C16.6918 34.7977 16.7026 34.7781 16.721 34.7535L17.8509 35.6ZM17.9837 35.3605C18.0315 35.279 18.0781 35.194 18.1215 35.1079L16.8613 34.4716C16.832 34.5296 16.7997 34.5887 16.7658 34.6464L17.9837 35.3605ZM18.1215 35.1079C18.1554 35.0408 18.2015 34.972 18.2737 34.8804L17.1653 34.006C17.0627 34.136 16.9541 34.2877 16.8613 34.4716L18.1215 35.1079ZM18.2737 34.8804C18.2825 34.8693 18.29 34.8589 18.2902 34.8587C18.2924 34.8557 18.2948 34.8524 18.2963 34.8503C18.2999 34.8454 18.3033 34.8408 18.3071 34.8356C18.3152 34.8247 18.3225 34.8151 18.3281 34.8081C18.3374 34.7964 18.3302 34.8068 18.3109 34.8257C18.3051 34.8315 18.2681 34.8685 18.2088 34.9061C18.1802 34.9242 18.1133 34.964 18.0178 34.9893C17.9231 35.0144 17.7257 35.0436 17.5135 34.9324L18.1691 33.682C17.9546 33.5696 17.7542 33.5987 17.6561 33.6247C17.5571 33.6509 17.4863 33.6926 17.4533 33.7135C17.3852 33.7566 17.3377 33.8027 17.3201 33.82C17.2776 33.8619 17.2426 33.905 17.2248 33.9272C17.2033 33.9541 17.1842 33.9797 17.1715 33.9968C17.1458 34.0318 17.1586 34.0145 17.1653 34.006L18.2737 34.8804ZM17.5135 34.9324C17.4618 34.9053 17.4235 34.8766 17.3989 34.8562C17.3738 34.8354 17.3553 34.8167 17.3436 34.8044C17.3317 34.7918 17.323 34.7814 17.3182 34.7755C17.3133 34.7694 17.3101 34.7652 17.3095 34.7644C17.3091 34.7639 17.3091 34.7639 17.3121 34.768C17.3142 34.7708 17.3195 34.778 17.3253 34.7857C17.3312 34.7935 17.3407 34.8059 17.3524 34.82C17.3638 34.8337 17.3819 34.8546 17.4055 34.878L18.3989 33.8749C18.4181 33.894 18.4317 33.9098 18.4384 33.9179C18.4455 33.9265 18.4502 33.9327 18.4512 33.934C18.4521 33.9353 18.4525 33.9357 18.4495 33.9317C18.4475 33.9289 18.4424 33.922 18.4368 33.9146C18.4271 33.9017 18.4033 33.8704 18.371 33.8361C18.354 33.8181 18.3301 33.7943 18.2997 33.7691C18.2697 33.7443 18.2261 33.7119 18.1691 33.682L17.5135 34.9324ZM17.4055 34.878C17.4322 34.9045 17.4567 34.9262 17.4734 34.9407C17.4817 34.948 17.4898 34.9549 17.4953 34.9596C17.5015 34.9649 17.5052 34.9681 17.5085 34.971C17.5151 34.9767 17.5135 34.9756 17.5086 34.9707C17.5033 34.9655 17.4918 34.9535 17.4779 34.9354L18.5987 34.0769C18.5351 33.9939 18.4684 33.935 18.4368 33.9073C18.4282 33.8998 18.42 33.8928 18.4142 33.8879C18.4078 33.8823 18.4039 33.879 18.4004 33.8759C18.3933 33.8698 18.3945 33.8706 18.3989 33.8749L17.4055 34.878ZM17.4779 34.9354C17.5199 34.9902 17.5471 35.0315 17.6094 35.1182C17.6627 35.1924 17.7337 35.2877 17.8227 35.3824L18.8513 34.4154C18.8265 34.389 18.7983 34.3534 18.7559 34.2944C18.7224 34.2478 18.6572 34.1533 18.5987 34.0769L17.4779 34.9354ZM17.8227 35.3824C17.8386 35.3992 17.8584 35.4247 17.8937 35.4798C17.9169 35.5159 17.9858 35.6295 18.042 35.7108L19.2035 34.9083C19.1623 34.8486 19.1478 34.8201 19.0822 34.7178C19.0287 34.6344 18.9544 34.525 18.8513 34.4154L17.8227 35.3824ZM18.042 35.7108C18.0659 35.7455 18.0888 35.7758 18.1065 35.7988C18.1289 35.8281 18.1344 35.8349 18.1483 35.8534C18.1693 35.8812 18.1674 35.8815 18.1618 35.8703L19.422 35.234C19.3708 35.1325 19.3131 35.0531 19.2752 35.003C19.2258 34.9374 19.2216 34.9346 19.2035 34.9083L18.042 35.7108ZM18.1618 35.8703C18.2183 35.9822 18.289 36.0657 18.3186 36.1004C18.3272 36.1105 18.3355 36.1202 18.3414 36.1269C18.3479 36.1345 18.352 36.1392 18.3556 36.1434C18.3631 36.1523 18.3613 36.1506 18.3561 36.1435L19.5011 35.3176C19.4746 35.2809 19.4491 35.2502 19.432 35.23C19.4234 35.2198 19.4149 35.21 19.4089 35.2032C19.4023 35.1954 19.3981 35.1906 19.3943 35.1861C19.3865 35.1769 19.3874 35.1776 19.3916 35.1834C19.396 35.1894 19.4083 35.2069 19.422 35.234L18.1618 35.8703ZM18.3561 36.1435C18.4221 36.2349 18.5149 36.341 18.5378 36.3689L19.6292 35.4734C19.5457 35.3716 19.5343 35.3636 19.5011 35.3176L18.3561 36.1435ZM18.5378 36.3689C18.554 36.3887 18.5615 36.3984 18.566 36.4047C18.5697 36.4097 18.5734 36.4151 18.579 36.4246L19.7914 35.7013C19.7343 35.6056 19.682 35.5377 19.6292 35.4734L18.5378 36.3689ZM18.579 36.4246C18.5815 36.4288 18.5846 36.4342 18.5946 36.4519C18.6027 36.4663 18.6159 36.4896 18.6308 36.5143C18.6569 36.5574 18.7121 36.6456 18.7967 36.7294L19.7901 35.7263C19.8023 35.7384 19.8118 35.749 19.8186 35.7571C19.8254 35.7653 19.8304 35.7718 19.8335 35.7762C19.8367 35.7806 19.8387 35.7836 19.8394 35.7846C19.8401 35.7857 19.8399 35.7855 19.8388 35.7836C19.8377 35.7817 19.8359 35.7788 19.8334 35.7744C19.8307 35.7698 19.8278 35.7646 19.8238 35.7576C19.8203 35.7513 19.8151 35.7421 19.8101 35.7334C19.8049 35.7243 19.7985 35.7132 19.7914 35.7013L18.579 36.4246ZM18.7967 36.7294C18.7808 36.7137 18.7697 36.7005 18.7635 36.6929C18.7603 36.6889 18.7579 36.6858 18.7564 36.6839C18.7557 36.6829 18.7551 36.6822 18.7548 36.6817C18.7546 36.6814 18.7545 36.6813 18.7544 36.6811C18.7543 36.6811 18.7543 36.681 18.7543 36.681C18.7543 36.681 18.7542 36.681 18.7542 36.681C18.7542 36.681 18.7543 36.681 18.7543 36.681C18.7543 36.681 18.7543 36.6811 18.7544 36.6811C18.7545 36.6813 18.7546 36.6814 18.7547 36.6817C18.7551 36.6822 18.7556 36.6829 18.7562 36.6838C18.7577 36.6859 18.7594 36.6884 18.762 36.6922C18.7663 36.6985 18.7752 36.7117 18.7846 36.725C18.8025 36.7504 18.8378 36.7994 18.8867 36.8507C18.9369 36.9032 19.0152 36.9731 19.126 37.028L19.7525 35.7628C19.8321 35.8022 19.8829 35.8497 19.9077 35.8757C19.9207 35.8892 19.9295 35.9001 19.934 35.9058C19.9385 35.9115 19.9405 35.9145 19.9391 35.9126C19.9373 35.9099 19.9352 35.9069 19.9286 35.8971C19.9232 35.8892 19.9137 35.8754 19.9032 35.8606C19.8923 35.8454 19.8776 35.8254 19.8597 35.8034C19.8419 35.7813 19.8187 35.7546 19.7901 35.7263L18.7967 36.7294ZM11.2622 39.619C11.2977 39.523 11.3724 39.4265 11.5403 39.1992L10.4049 38.3603C10.3017 38.4999 10.061 38.7962 9.93775 39.1303L11.2622 39.619ZM11.5403 39.1992C11.5549 39.1795 11.6472 39.0625 11.7078 38.9605L10.494 38.2396C10.4943 38.2391 10.4929 38.2415 10.4888 38.2474C10.4848 38.2533 10.4792 38.2611 10.4713 38.2719C10.4631 38.2829 10.4544 38.2945 10.4428 38.3097C10.4322 38.3238 10.4185 38.3418 10.4049 38.3603L11.5403 39.1992ZM11.7078 38.9605C11.7291 38.9246 11.7463 38.8918 11.758 38.8691C11.7636 38.8581 11.7695 38.8464 11.7733 38.8389C11.7777 38.8304 11.7806 38.8246 11.7832 38.8197C11.7947 38.7978 11.7863 38.8178 11.762 38.8464L10.6847 37.934C10.6071 38.0256 10.5583 38.1155 10.5323 38.1652C10.5227 38.1836 10.5043 38.22 10.5022 38.2241C10.4953 38.2374 10.4935 38.2405 10.494 38.2396L11.7078 38.9605ZM11.762 38.8464C11.7618 38.8467 11.7633 38.8449 11.7678 38.8402C11.7725 38.8354 11.779 38.8289 11.7894 38.8189C11.7946 38.8139 11.8001 38.8086 11.8067 38.8023C11.813 38.7963 11.8207 38.789 11.8284 38.7817C11.8438 38.7668 11.863 38.7481 11.8835 38.7272L10.8743 37.74C10.858 37.7566 10.8487 37.7649 10.81 37.8021C10.779 37.832 10.7324 37.8777 10.6847 37.934L11.762 38.8464ZM11.8835 38.7272C11.962 38.6469 12.0173 38.5641 12.0448 38.5224C12.0524 38.5108 12.0597 38.4995 12.0654 38.4908C12.0715 38.4813 12.0759 38.4745 12.0801 38.4681C12.0887 38.455 12.0914 38.4515 12.0909 38.4521L10.961 37.6057C10.9361 37.639 10.9152 37.6702 10.9005 37.6926C10.893 37.7039 10.8858 37.715 10.8803 37.7235C10.8744 37.7327 10.87 37.7394 10.8659 37.7457C10.8619 37.7517 10.8591 37.7559 10.8571 37.7588C10.8551 37.7617 10.8543 37.7627 10.8546 37.7624C10.8547 37.7622 10.8614 37.7532 10.8743 37.74L11.8835 38.7272ZM12.0909 38.4521C12.1617 38.3577 12.2027 38.2639 12.2174 38.231C12.2295 38.2038 12.229 38.2044 12.2334 38.1948C12.2355 38.1904 12.2318 38.1988 12.2237 38.2127L11.0058 37.4986C10.9815 37.5402 10.9634 37.5776 10.9517 37.6029C10.9458 37.6158 10.9405 37.6277 10.9367 37.6363C10.932 37.647 10.9305 37.6505 10.9277 37.6568C10.9229 37.6676 10.9237 37.665 10.9276 37.6578C10.9318 37.6498 10.9426 37.6303 10.961 37.6057L12.0909 38.4521ZM12.2237 38.2127C12.2715 38.1311 12.318 38.0462 12.3615 37.9601L11.1013 37.3238C11.072 37.3818 11.0397 37.4408 11.0058 37.4986L12.2237 38.2127ZM12.3615 37.9601C12.3954 37.893 12.4415 37.8241 12.5137 37.7326L11.4053 36.8582C11.3027 36.9882 11.1941 37.1399 11.1013 37.3238L12.3615 37.9601ZM12.5137 37.7326C12.5225 37.7215 12.53 37.7111 12.5302 37.7109C12.5324 37.7079 12.5348 37.7046 12.5363 37.7025C12.5399 37.6976 12.5433 37.693 12.5471 37.6878C12.5552 37.6769 12.5625 37.6673 12.5681 37.6603C12.5774 37.6486 12.5702 37.6589 12.5509 37.6779C12.5451 37.6837 12.5081 37.7207 12.4488 37.7583C12.4202 37.7764 12.3533 37.8162 12.2578 37.8415C12.1631 37.8666 11.9657 37.8958 11.7535 37.7845L12.4091 36.5342C12.1946 36.4218 11.9942 36.4509 11.8961 36.4769C11.7971 36.5031 11.7263 36.5448 11.6933 36.5657C11.6252 36.6088 11.5777 36.6549 11.5601 36.6722C11.5176 36.7141 11.4826 36.7572 11.4648 36.7794C11.4433 36.8063 11.4242 36.8319 11.4115 36.849C11.3858 36.8839 11.3986 36.8667 11.4053 36.8582L12.5137 37.7326ZM11.7535 37.7845C11.7018 37.7574 11.6635 37.7287 11.6389 37.7084C11.6138 37.6876 11.5952 37.6689 11.5836 37.6566C11.5717 37.6439 11.563 37.6336 11.5582 37.6276C11.5532 37.6216 11.55 37.6173 11.5494 37.6166C11.5491 37.616 11.5491 37.6161 11.5521 37.6202C11.5542 37.623 11.5595 37.6302 11.5653 37.6379C11.5712 37.6457 11.5807 37.658 11.5924 37.6722C11.6038 37.6859 11.6219 37.7068 11.6455 37.7302L12.6389 36.7271C12.6581 36.7462 12.6717 36.762 12.6784 36.7701C12.6855 36.7787 12.6902 36.7849 12.6912 36.7862C12.6922 36.7875 12.6925 36.7879 12.6895 36.7839C12.6875 36.7811 12.6824 36.7742 12.6768 36.7668C12.6671 36.7539 12.6433 36.7226 12.611 36.6883C12.5941 36.6703 12.5701 36.6465 12.5397 36.6213C12.5098 36.5965 12.4661 36.5641 12.4091 36.5342L11.7535 37.7845ZM11.6455 37.7302C11.6722 37.7566 11.6967 37.7784 11.7134 37.7929C11.7217 37.8001 11.7298 37.8071 11.7353 37.8118C11.7415 37.8171 11.7452 37.8203 11.7485 37.8232C11.7551 37.8289 11.7535 37.8278 11.7486 37.8229C11.7433 37.8176 11.7318 37.8057 11.7179 37.7876L12.8387 36.9291C12.7751 36.8461 12.7084 36.7871 12.6768 36.7595C12.6682 36.752 12.66 36.745 12.6542 36.7401C12.6478 36.7345 12.6439 36.7312 12.6404 36.7281C12.6333 36.722 12.6345 36.7227 12.6389 36.7271L11.6455 37.7302ZM11.7179 37.7876C11.7599 37.8423 11.7871 37.8837 11.8494 37.9704C11.9027 38.0446 11.9737 38.1398 12.0627 38.2345L13.0913 37.2676C13.0665 37.2411 13.0383 37.2056 12.9959 37.1466C12.9624 37.1 12.8972 37.0055 12.8387 36.9291L11.7179 37.7876ZM12.0627 38.2345C12.0786 38.2514 12.0984 38.2769 12.1337 38.332C12.1569 38.3681 12.2258 38.4817 12.282 38.563L13.4435 37.7605C13.4023 37.7008 13.3878 37.6723 13.3222 37.5699C13.2687 37.4865 13.1944 37.3772 13.0913 37.2676L12.0627 38.2345ZM12.282 38.563C12.3059 38.5976 12.3288 38.628 12.3464 38.651C12.3689 38.6803 12.3744 38.687 12.3883 38.7056C12.4093 38.7334 12.4074 38.7337 12.4018 38.7225L13.662 38.0862C13.6108 37.9847 13.5531 37.9053 13.5152 37.8552C13.4658 37.7896 13.4616 37.7867 13.4435 37.7605L12.282 38.563ZM12.4018 38.7225C12.4583 38.8344 12.529 38.9178 12.5586 38.9526C12.5672 38.9627 12.5755 38.9724 12.5814 38.9791C12.5879 38.9867 12.592 38.9914 12.5956 38.9956C12.6031 39.0045 12.6013 39.0028 12.5961 38.9957L13.7411 38.1698C13.7146 38.1331 13.6891 38.1023 13.672 38.0822C13.6634 38.072 13.6549 38.0622 13.6489 38.0553C13.6423 38.0476 13.6381 38.0428 13.6343 38.0383C13.6265 38.0291 13.6274 38.0298 13.6316 38.0356C13.636 38.0416 13.6483 38.0591 13.662 38.0862L12.4018 38.7225ZM12.5961 38.9957C12.6621 39.0871 12.7549 39.1931 12.7778 39.2211L13.8692 38.3256C13.7857 38.2238 13.7743 38.2158 13.7411 38.1698L12.5961 38.9957ZM12.7778 39.2211C12.794 39.2409 12.8015 39.2506 12.806 39.2569C12.8097 39.2619 12.8134 39.2673 12.819 39.2768L14.0314 38.5535C13.9743 38.4578 13.922 38.3899 13.8692 38.3256L12.7778 39.2211ZM12.819 39.2768C12.8215 39.281 12.8246 39.2864 12.8346 39.3041C12.8427 39.3185 12.8559 39.3418 12.8708 39.3665C12.8969 39.4096 12.9521 39.4978 13.0367 39.5816L14.0301 38.5785C14.0423 38.5906 14.0518 38.6012 14.0586 38.6093C14.0654 38.6174 14.0704 38.624 14.0735 38.6284C14.0767 38.6328 14.0787 38.6358 14.0794 38.6368C14.0801 38.6379 14.0799 38.6377 14.0788 38.6358C14.0777 38.6339 14.0759 38.631 14.0734 38.6266C14.0707 38.622 14.0678 38.6168 14.0638 38.6097C14.0603 38.6035 14.0551 38.5943 14.0501 38.5856C14.0449 38.5765 14.0385 38.5654 14.0314 38.5535L12.819 39.2768ZM13.0367 39.5816C13.0208 39.5659 13.0097 39.5527 13.0035 39.5451C13.0003 39.5411 12.9979 39.538 12.9964 39.5361C12.9957 39.5351 12.9951 39.5344 12.9948 39.5339C12.9946 39.5336 12.9945 39.5334 12.9944 39.5333C12.9943 39.5333 12.9943 39.5332 12.9943 39.5332C12.9943 39.5332 12.9942 39.5331 12.9942 39.5331C12.9942 39.5331 12.9943 39.5332 12.9943 39.5332C12.9943 39.5332 12.9943 39.5333 12.9944 39.5333C12.9945 39.5334 12.9946 39.5336 12.9947 39.5339C12.9951 39.5344 12.9956 39.535 12.9962 39.536C12.9977 39.5381 12.9994 39.5405 13.002 39.5444C13.0063 39.5507 13.0152 39.5639 13.0246 39.5772C13.0425 39.6026 13.0778 39.6516 13.1267 39.7029C13.1769 39.7554 13.2552 39.8253 13.366 39.8801L13.9925 38.615C14.0721 38.6544 14.1229 38.7019 14.1477 38.7279C14.1607 38.7414 14.1695 38.7523 14.174 38.758C14.1785 38.7637 14.1805 38.7667 14.1791 38.7648C14.1773 38.7621 14.1752 38.7591 14.1686 38.7493C14.1632 38.7414 14.1537 38.7276 14.1432 38.7128C14.1323 38.6976 14.1176 38.6776 14.0997 38.6556C14.0819 38.6335 14.0587 38.6068 14.0301 38.5785L13.0367 39.5816ZM24.2941 32.3132C24.2941 39.547 19.333 44.0588 13.2353 44.0588V45.4706C20.1326 45.4706 25.7059 40.3066 25.7059 32.3132H24.2941ZM13.2353 44.0588C10.1427 44.0588 7.25948 43.0135 5.15689 41.095C3.06311 39.1844 1.70588 36.3749 1.70588 32.7579H0.294118C0.294118 36.7544 1.8058 39.9483 4.2053 42.1378C6.59599 44.3193 9.83043 45.4706 13.2353 45.4706V44.0588ZM1.70588 32.7579C1.70588 29.118 3.08184 25.3754 5.24192 22.5493C7.40859 19.7145 10.2818 17.8994 13.2353 17.8994V16.4877C9.69132 16.4877 6.44689 18.648 4.12027 21.692C1.78707 24.7446 0.294118 28.7843 0.294118 32.7579H1.70588ZM13.2353 17.8994C16.1974 17.8994 18.95 19.6125 20.9902 22.3228C23.0278 25.0295 24.2941 28.6607 24.2941 32.3132H25.7059C25.7059 28.3522 24.3386 24.4235 22.1182 21.4738C19.9004 18.5276 16.7707 16.4877 13.2353 16.4877V17.8994ZM8.20359 17.6163C7.33355 16.8443 6.86764 16.2471 6.5355 15.2756L5.19965 15.7323C5.63455 17.0044 6.27846 17.7955 7.26656 18.6723L8.20359 17.6163ZM6.5355 15.2756C6.39351 14.8603 6.13692 14.295 5.98646 13.9077C5.8099 13.4533 5.70672 13.0843 5.70672 12.7882H4.29496C4.29496 13.3629 4.48419 13.9394 4.67052 14.419C4.88295 14.9658 5.05973 15.323 5.19965 15.7323L6.5355 15.2756ZM5.70672 12.7882C5.70672 12.3506 5.66219 11.9241 5.62258 11.5401C5.58173 11.1442 5.54588 10.7913 5.54588 10.4413H4.13412C4.13412 10.8761 4.17869 11.3013 4.21826 11.6849C4.25906 12.0804 4.29496 12.4351 4.29496 12.7882H5.70672ZM5.54588 10.4413C5.54588 10.4199 5.54836 10.375 5.55743 10.3202C5.56655 10.2651 5.57933 10.2184 5.59214 10.1863C5.60662 10.1499 5.60884 10.1625 5.57841 10.1924C5.5608 10.2097 5.53167 10.2331 5.48981 10.2526C5.44664 10.2728 5.40069 10.2839 5.35727 10.286L5.28776 8.87594C4.66642 8.90657 4.38323 9.40592 4.28043 9.66424C4.16671 9.95 4.13412 10.2537 4.13412 10.4413H5.54588ZM5.35727 10.286C5.60609 10.2737 5.75893 10.3471 6.1403 10.5985L6.91729 9.41978C6.52304 9.15989 6.03122 8.83929 5.28776 8.87594L5.35727 10.286ZM6.1403 10.5985C6.71733 10.9789 7.21725 11.2874 7.66584 11.6763L8.59063 10.6096C8.05197 10.1426 7.44375 9.76681 6.91729 9.41978L6.1403 10.5985ZM7.66584 11.6763C7.8801 11.8621 8.10054 12.0387 8.30925 12.2055C8.52151 12.3752 8.72121 12.5345 8.91224 12.6984C9.2944 13.0262 9.60598 13.3429 9.83081 13.702L11.0274 12.9528C10.6923 12.4176 10.2576 11.9925 9.83142 11.6269C9.61826 11.444 9.39826 11.2687 9.19081 11.1028C8.97981 10.9342 8.78055 10.7743 8.59063 10.6096L7.66584 11.6763ZM9.83081 13.702C9.85905 13.7471 9.89008 13.7944 9.92236 13.8374C9.93329 13.8519 10.0141 13.9661 10.1472 14.049C10.2033 14.084 10.4555 14.2322 10.7746 14.1142C11.1088 13.9905 11.1989 13.6961 11.2183 13.6202C11.2593 13.4602 11.2333 13.3157 11.2326 13.3107C11.2223 13.2365 11.2006 13.1475 11.1916 13.1091C11.1778 13.0501 11.1698 13.0143 11.1656 12.9892L9.77307 13.2216C9.78615 13.3 9.80548 13.3816 9.81705 13.431C9.83347 13.5011 9.8352 13.5116 9.83428 13.505C9.83355 13.4997 9.83093 13.4804 9.83004 13.4527C9.82946 13.4347 9.82711 13.362 9.85063 13.2701C9.86815 13.2017 9.95509 12.912 10.2847 12.7901C10.5991 12.6738 10.8453 12.8206 10.8937 12.8508C10.9678 12.897 11.0128 12.9454 11.0238 12.9572C11.0405 12.9753 11.0501 12.9882 11.0513 12.9897C11.0536 12.9928 11.0467 12.9836 11.0274 12.9528L9.83081 13.702ZM11.1656 12.9892C11.0568 12.3374 11.0217 11.6271 11.0143 10.9293L9.60264 10.9443C9.61036 11.6703 9.64665 12.4644 9.77307 13.2216L11.1656 12.9892ZM11.0143 10.9293C11.0006 9.63799 11.1926 8.59652 11.6528 7.3712L10.3312 6.87475C9.81248 8.25576 9.58697 9.4703 9.60264 10.9443L11.0143 10.9293ZM11.6528 7.3712C11.7356 7.15097 11.8226 6.91641 11.945 6.72144C12.0742 6.5157 12.1523 6.5 12.1544 6.49967L11.9295 5.10593C11.325 5.20346 10.9551 5.64315 10.7494 5.97068C10.537 6.30898 10.4023 6.68558 10.3312 6.87475L11.6528 7.3712ZM12.1544 6.49967C12.2235 6.48852 12.267 6.48984 12.2908 6.49264C12.3131 6.49527 12.3217 6.49958 12.3233 6.50033C12.3251 6.50126 12.3308 6.50414 12.3412 6.51448C12.3526 6.52582 12.3703 6.54669 12.3925 6.5831C12.4405 6.66157 12.488 6.77495 12.5426 6.94107C12.5693 7.02235 12.5943 7.10527 12.6229 7.19883C12.6503 7.2888 12.6809 7.38865 12.7146 7.48678L14.05 7.02876C14.0252 6.95654 14.001 6.87819 13.9733 6.78733C13.9467 6.70007 13.9164 6.59956 13.8837 6.50005C13.8194 6.30458 13.7316 6.06693 13.5971 5.84692C13.459 5.62093 13.2547 5.3854 12.9471 5.23386C12.6355 5.0804 12.2889 5.04794 11.9295 5.10593L12.1544 6.49967ZM12.7146 7.48678C12.8647 7.92451 13.0349 8.36467 13.2005 8.79351C13.3679 9.2268 13.5311 9.64977 13.6769 10.0736C13.9694 10.9239 14.1744 11.7311 14.1866 12.5177L15.5982 12.4959C15.5826 11.4896 15.3226 10.5178 15.0119 9.61446C14.8561 9.16155 14.6833 8.71411 14.5175 8.28482C14.3499 7.85108 14.1898 7.43649 14.05 7.02876L12.7146 7.48678ZM14.1866 12.5177C14.1923 12.8917 14.1865 13.2526 14.1865 13.6485H15.5982C15.5982 13.2835 15.6041 12.8827 15.5982 12.4959L14.1866 12.5177ZM14.1865 13.6485C14.1865 13.6925 14.1884 13.7478 14.1969 13.8075C14.2039 13.8569 14.2224 13.9637 14.2846 14.0785C14.3518 14.2028 14.5207 14.4166 14.8337 14.4553C15.1038 14.4887 15.2942 14.3633 15.3582 14.3162C15.4896 14.2195 15.5663 14.0947 15.5864 14.0627C15.6222 14.0058 15.6535 13.9466 15.6781 13.8972C15.728 13.7969 15.7756 13.6866 15.809 13.6071C15.8258 13.5673 15.8418 13.5287 15.8515 13.5053C15.8696 13.4618 15.863 13.48 15.8492 13.5065L14.5967 12.855C14.5754 12.8961 14.5527 12.952 14.5485 12.9619C14.5361 12.9918 14.5236 13.022 14.5079 13.0592C14.4766 13.1337 14.4434 13.2096 14.4145 13.2676C14.4077 13.2812 14.402 13.292 14.3976 13.3001C14.393 13.3086 14.3909 13.3118 14.3915 13.3109C14.3918 13.3104 14.3935 13.3077 14.3964 13.3035C14.3993 13.2994 14.4044 13.2923 14.4118 13.2831C14.4215 13.2709 14.458 13.2258 14.5213 13.1792C14.571 13.1427 14.7483 13.0223 15.0069 13.0542C15.3082 13.0915 15.4671 13.2974 15.5261 13.4064C15.58 13.506 15.592 13.5901 15.5946 13.6085C15.5987 13.6372 15.5982 13.6532 15.5982 13.6485H14.1865ZM15.8492 13.5065C15.9933 13.2295 16.2144 12.9522 16.4949 12.6556C16.7913 12.3422 17.0696 12.0903 17.3985 11.76L16.3982 10.7638C16.1411 11.022 15.7698 11.3677 15.4692 11.6856C15.1525 12.0204 14.829 12.4083 14.5967 12.855L15.8492 13.5065ZM17.3985 11.76C17.8856 11.271 18.5276 10.7997 19.1118 10.6653L18.7952 9.28951C17.8208 9.51368 16.9474 10.2123 16.3982 10.7638L17.3985 11.76ZM19.1118 10.6653C19.2714 10.6286 19.862 10.5866 20.4283 10.6367C20.7088 10.6616 20.9189 10.7043 21.0386 10.7505C21.2277 10.8236 20.9341 10.7767 20.9341 10.4413H22.3459C22.3459 9.79768 21.7811 9.52387 21.5472 9.43357C21.244 9.31646 20.8795 9.25943 20.5529 9.23049C19.9053 9.1731 19.1526 9.2073 18.7952 9.28951L19.1118 10.6653ZM20.9341 10.4413C20.9341 10.5242 20.9035 10.6866 20.8107 10.9435C20.7223 11.188 20.5979 11.4641 20.4566 11.7587C20.3348 12.0128 20.1483 12.3852 20.0311 12.6316C19.9014 12.9044 19.7714 13.1951 19.6965 13.4492L21.0508 13.8479C21.091 13.7114 21.1768 13.5098 21.306 13.238C21.4479 12.9398 21.5636 12.7152 21.7296 12.3692C21.8761 12.0636 22.0252 11.7363 22.1383 11.4235C22.2469 11.1231 22.3459 10.7743 22.3459 10.4413H20.9341ZM19.7577 13.3039C19.1284 14.4285 19.1774 14.2303 18.3775 15.3594L19.5295 16.1755C20.2626 15.1407 20.3116 15.2049 20.9897 13.9932L19.7577 13.3039ZM18.3775 15.3594C18.1983 15.6124 18.0531 15.8388 17.9298 16.0337C17.8027 16.2347 17.7094 16.3849 17.6175 16.5162C17.4463 16.7607 17.3331 16.86 17.1795 16.9282L17.752 18.2186C18.2348 18.0044 18.5288 17.6761 18.774 17.3259C18.8902 17.1599 19.0075 16.971 19.123 16.7884C19.2424 16.5996 19.372 16.3979 19.5295 16.1755L18.3775 15.3594ZM7.90264 10.5278C7.89764 10.1947 7.79536 9.56124 7.71224 9.03012C7.61845 8.43089 7.54479 7.93797 7.54479 7.73687H6.13303C6.13303 8.07837 6.23429 8.71708 6.31745 9.24841C6.41127 9.84785 6.48795 10.3438 6.49103 10.549L7.90264 10.5278ZM7.54479 7.73687C7.54479 7.5132 7.51916 7.28545 7.50012 7.10599C7.47944 6.91098 7.46463 6.75819 7.46596 6.61738C7.46839 6.36182 7.52086 6.24029 7.6486 6.1339L6.74507 5.04913C6.18545 5.51526 6.05896 6.1088 6.05426 6.60399C6.05204 6.83855 6.07663 7.07005 6.09623 7.25489C6.11749 7.45528 6.13303 7.60294 6.13303 7.73687H7.54479ZM7.6486 6.1339C7.65557 6.12809 7.64893 6.1347 7.63385 6.13771C7.62217 6.14004 7.62833 6.13547 7.66199 6.14345C7.74315 6.16268 7.88748 6.23124 8.09132 6.39377C8.49407 6.71491 8.92581 7.23584 9.28377 7.72283L10.4213 6.88668C10.0489 6.38011 9.52691 5.73283 8.97145 5.28994C8.69618 5.07045 8.36029 4.85805 7.98748 4.76972C7.58043 4.67327 7.12943 4.72899 6.74507 5.04913L7.6486 6.1339ZM9.28377 7.72283C9.53067 8.0587 9.72398 8.3525 9.83351 8.51672L11.008 7.73335C10.9019 7.57423 10.6906 7.25305 10.4213 6.88668L9.28377 7.72283ZM11.1266 8.12503V7.58244H9.71487V8.12503H11.1266ZM10.5416 7.45795C10.592 7.23136 10.8838 6.30097 11.1829 5.37177C11.3284 4.91953 11.4703 4.48376 11.5759 4.16092C11.6286 3.99954 11.6723 3.86648 11.7028 3.7738C11.718 3.72746 11.7299 3.69122 11.738 3.66659C11.7421 3.65428 11.7452 3.64487 11.7472 3.63855C11.7483 3.63539 11.7491 3.633 11.7496 3.63141C11.7499 3.63062 11.7501 3.63002 11.7502 3.62963C11.7502 3.62943 11.7503 3.62928 11.7503 3.62919C11.7503 3.62914 11.7504 3.62911 11.7504 3.62908C11.7504 3.62906 11.7504 3.62906 11.08 3.40799C10.4096 3.18693 10.4096 3.18694 10.4096 3.18697C10.4096 3.187 10.4096 3.18704 10.4096 3.1871C10.4095 3.18721 10.4095 3.18737 10.4094 3.18758C10.4093 3.188 10.4091 3.18862 10.4088 3.18945C10.4083 3.19109 10.4074 3.19353 10.4064 3.19675C10.4043 3.20318 10.4011 3.21271 10.397 3.22515C10.3889 3.25002 10.3768 3.28651 10.3615 3.33313C10.3309 3.42635 10.287 3.56006 10.234 3.72216C10.128 4.04627 9.98542 4.48426 9.83898 4.93926C9.55407 5.82454 9.23218 6.84253 9.16347 7.15155L10.5416 7.45795ZM11.7354 3.67026C11.7571 3.61593 11.84 3.47329 12.0117 3.25338C12.1721 3.048 12.3779 2.81547 12.6013 2.58928C12.825 2.36284 13.0574 2.1519 13.2689 1.98617C13.4927 1.81074 13.6487 1.7214 13.7251 1.69315L13.2349 0.369189C12.9491 0.475022 12.6542 0.674179 12.398 0.874982C12.1294 1.08548 11.8525 1.3385 11.597 1.5971C11.3413 1.85593 11.0981 2.1295 10.8989 2.38461C10.7111 2.62519 10.524 2.89744 10.4246 3.14572L11.7354 3.67026ZM13.7251 1.69315C13.6123 1.73488 13.5402 1.66514 13.5899 1.70539C13.6598 1.76188 13.7735 1.89852 13.91 2.15142C14.1767 2.64536 14.4153 3.36321 14.5841 4.05141L15.9552 3.71524C15.7743 2.97736 15.5014 2.12726 15.1523 1.4807C14.9809 1.16335 14.7607 0.8366 14.4778 0.607738C14.1747 0.362632 13.731 0.185572 13.2349 0.369189L13.7251 1.69315ZM14.5841 4.05141C14.6039 4.13248 14.6065 4.31177 14.5426 4.62377C14.482 4.91933 14.3788 5.25756 14.2583 5.62256C14.1433 5.9708 14.0054 6.36325 13.9035 6.7019C13.805 7.02903 13.7069 7.40717 13.7069 7.73687H15.1186C15.1186 7.63626 15.1567 7.4364 15.2553 7.10887C15.3505 6.79285 15.4705 6.45397 15.5989 6.06524C15.7217 5.69327 15.8474 5.28891 15.9256 4.90726C16.0004 4.54206 16.0519 4.10954 15.9552 3.71524L14.5841 4.05141ZM15.8029 8.04487C16.3199 7.44871 16.8147 6.99636 17.4544 6.93717L17.3243 5.53141C16.0731 5.6472 15.2508 6.52671 14.7363 7.12L15.8029 8.04487ZM17.4544 6.93717C17.7047 6.914 17.9351 6.88545 18.1368 6.89727C18.2346 6.903 18.2698 6.91659 18.2661 6.915C18.2516 6.90884 18.1576 6.86088 18.107 6.73446L19.4177 6.20993C19.2893 5.88914 19.0383 5.7093 18.8187 5.61589C18.6099 5.52706 18.3919 5.49803 18.2194 5.48792C17.8806 5.46807 17.5023 5.51493 17.3243 5.53141L17.4544 6.93717ZM18.107 6.73447C18.3868 7.43359 18.4874 8.13934 18.4874 8.91806H19.8992C19.8992 8.01149 19.7811 7.11805 19.4177 6.20993L18.107 6.73447ZM8.38225 26.3087C8.41767 26.2128 8.49239 26.1163 8.66033 25.889L7.52486 25.0501C7.42169 25.1897 7.18103 25.4859 7.05775 25.8201L8.38225 26.3087ZM8.66033 25.889C8.67489 25.8693 8.76722 25.7523 8.82779 25.6503L7.614 24.9294C7.61429 24.9289 7.61289 24.9313 7.60884 24.9372C7.60479 24.9431 7.59923 24.9509 7.59128 24.9617C7.58312 24.9727 7.57437 24.9843 7.56283 24.9995C7.55219 25.0136 7.53848 25.0316 7.52486 25.0501L8.66033 25.889ZM8.82779 25.6503C8.84912 25.6144 8.8663 25.5816 8.87797 25.5589C8.88365 25.5478 8.88955 25.5362 8.89332 25.5287C8.89767 25.5202 8.90062 25.5144 8.90317 25.5095C8.91466 25.4876 8.90627 25.5076 8.88203 25.5362L7.8047 24.6238C7.72712 24.7154 7.6783 24.8053 7.65229 24.855C7.64265 24.8734 7.62425 24.9098 7.62219 24.9138C7.61533 24.9272 7.61347 24.9303 7.614 24.9294L8.82779 25.6503ZM8.88203 25.5362C8.88178 25.5365 8.8833 25.5347 8.88781 25.53C8.89252 25.5251 8.89904 25.5187 8.90944 25.5087C8.91463 25.5037 8.9201 25.4984 8.92674 25.4921C8.93302 25.4861 8.94067 25.4788 8.94835 25.4714C8.96382 25.4566 8.98303 25.4379 9.00349 25.417L7.99428 24.4298C7.97804 24.4464 7.96867 24.4547 7.93003 24.4919C7.89897 24.5218 7.85241 24.5675 7.8047 24.6238L8.88203 25.5362ZM9.00349 25.417C9.08202 25.3367 9.13731 25.2539 9.16478 25.2122C9.17243 25.2006 9.17972 25.1893 9.18537 25.1806C9.19151 25.1711 9.1959 25.1643 9.20012 25.1579C9.20872 25.1448 9.21136 25.1413 9.2109 25.1419L8.08104 24.2955C8.05607 24.3288 8.03517 24.36 8.02046 24.3824C8.01302 24.3937 8.00582 24.4048 8.00034 24.4133C7.99437 24.4225 7.99 24.4292 7.98588 24.4355C7.98189 24.4415 7.9791 24.4457 7.97707 24.4486C7.97506 24.4515 7.97429 24.4525 7.97455 24.4522C7.9747 24.452 7.98138 24.443 7.99428 24.4298L9.00349 25.417ZM9.2109 25.1419C9.28169 25.0475 9.32274 24.9537 9.33739 24.9208C9.34949 24.8936 9.34898 24.8942 9.35342 24.8846C9.35546 24.8802 9.35184 24.8885 9.34369 24.9025L8.12581 24.1884C8.10146 24.23 8.08342 24.2674 8.07174 24.2927C8.06577 24.3056 8.06052 24.3175 8.0567 24.3261C8.05198 24.3368 8.05048 24.3403 8.04766 24.3466C8.04285 24.3574 8.04373 24.3548 8.04757 24.3476C8.05178 24.3396 8.0626 24.3201 8.08104 24.2955L9.2109 25.1419ZM9.34369 24.9025C9.39148 24.8209 9.43805 24.736 9.48151 24.6499L8.22126 24.0136C8.19198 24.0716 8.15969 24.1306 8.12581 24.1884L9.34369 24.9025ZM9.48151 24.6499C9.51538 24.5828 9.56148 24.5139 9.63368 24.4224L8.52528 23.548C8.42273 23.678 8.31413 23.8297 8.22126 24.0136L9.48151 24.6499ZM9.63367 24.4224C9.64248 24.4112 9.65003 24.4009 9.6502 24.4007C9.65243 24.3976 9.65483 24.3944 9.65634 24.3923C9.65995 24.3874 9.66327 24.3828 9.66712 24.3776C9.67517 24.3667 9.68246 24.3571 9.68807 24.3501C9.69743 24.3383 9.69016 24.3487 9.67094 24.3677C9.66506 24.3735 9.6281 24.4105 9.56877 24.4481C9.54019 24.4662 9.47332 24.506 9.37778 24.5313C9.28314 24.5564 9.08565 24.5856 8.87352 24.4743L9.52907 23.224C9.31461 23.1116 9.11419 23.1406 9.0161 23.1666C8.91712 23.1929 8.84629 23.2346 8.8133 23.2555C8.74517 23.2986 8.69767 23.3447 8.68013 23.362C8.63759 23.4039 8.60257 23.447 8.58483 23.4692C8.56334 23.4961 8.54419 23.5217 8.53155 23.5388C8.50576 23.5737 8.51862 23.5565 8.52528 23.548L9.63367 24.4224ZM8.87352 24.4743C8.82183 24.4472 8.7835 24.4185 8.75893 24.3982C8.73381 24.3774 8.71524 24.3587 8.70361 24.3464C8.69168 24.3337 8.68302 24.3234 8.67818 24.3174C8.67323 24.3114 8.67004 24.3071 8.66944 24.3064C8.66905 24.3058 8.66908 24.3059 8.6721 24.31C8.67415 24.3128 8.67947 24.32 8.68527 24.3277C8.69117 24.3355 8.70066 24.3478 8.71243 24.362C8.72379 24.3757 8.74188 24.3966 8.7655 24.42L9.75892 23.4169C9.77814 23.436 9.79168 23.4518 9.79838 23.4599C9.80549 23.4684 9.8102 23.4747 9.81122 23.476C9.81216 23.4773 9.8125 23.4777 9.8095 23.4737C9.80748 23.4709 9.80237 23.464 9.7968 23.4566C9.78708 23.4437 9.7633 23.4124 9.73102 23.3781C9.71406 23.3601 9.69015 23.3363 9.65967 23.3111C9.62976 23.2863 9.58609 23.2539 9.52907 23.224L8.87352 24.4743ZM8.7655 24.42C8.79217 24.4464 8.81673 24.4682 8.83337 24.4827C8.84169 24.4899 8.8498 24.4969 8.85527 24.5016C8.86147 24.5069 8.86521 24.5101 8.86847 24.513C8.87508 24.5187 8.87348 24.5176 8.8686 24.5127C8.86331 24.5074 8.85178 24.4954 8.83792 24.4774L9.95865 23.6189C9.89513 23.5359 9.82843 23.4769 9.79677 23.4493C9.78819 23.4418 9.77998 23.4348 9.77423 23.4299C9.76776 23.4243 9.76391 23.421 9.76037 23.4179C9.75329 23.4117 9.75448 23.4125 9.75892 23.4169L8.7655 24.42ZM8.83792 24.4774C8.87988 24.5321 8.90712 24.5735 8.96939 24.6601C9.02275 24.7344 9.09368 24.8296 9.18271 24.9243L10.2113 23.9573C10.1865 23.9309 10.1583 23.8954 10.1159 23.8364C10.0824 23.7897 10.0172 23.6953 9.95865 23.6189L8.83792 24.4774ZM9.18271 24.9243C9.19856 24.9412 9.21844 24.9667 9.25374 25.0218C9.27691 25.0579 9.34584 25.1715 9.40201 25.2528L10.5635 24.4503C10.5223 24.3906 10.5078 24.3621 10.4422 24.2597C10.3887 24.1763 10.3144 24.067 10.2113 23.9573L9.18271 24.9243ZM9.40201 25.2528C9.42595 25.2874 9.44883 25.3178 9.46645 25.3408C9.48886 25.3701 9.49435 25.3768 9.50834 25.3954C9.52931 25.4232 9.52743 25.4235 9.52177 25.4123L10.782 24.776C10.7308 24.6745 10.6731 24.5951 10.6352 24.545C10.5858 24.4794 10.5816 24.4765 10.5635 24.4503L9.40201 25.2528ZM9.52177 25.4123C9.57829 25.5242 9.64904 25.6076 9.67857 25.6424C9.68716 25.6525 9.69555 25.6622 9.70138 25.6689C9.70794 25.6765 9.712 25.6812 9.71558 25.6854C9.72308 25.6943 9.72128 25.6926 9.71611 25.6854L10.8611 24.8596C10.8346 24.8228 10.8091 24.7921 10.792 24.772C10.7833 24.7618 10.7749 24.752 10.7689 24.7451C10.7622 24.7374 10.7581 24.7326 10.7543 24.7281C10.7465 24.7189 10.7474 24.7196 10.7516 24.7253C10.756 24.7314 10.7683 24.7489 10.782 24.776L9.52177 25.4123ZM9.71611 25.6854C9.78207 25.7769 9.87487 25.8829 9.89777 25.9108L10.9892 25.0154C10.9057 24.9136 10.8943 24.9056 10.8611 24.8596L9.71611 25.6854ZM9.89777 25.9108C9.91401 25.9306 9.92145 25.9404 9.92603 25.9467C9.92966 25.9517 9.93338 25.9571 9.93905 25.9666L11.1514 25.2432C11.0943 25.1476 11.042 25.0797 10.9892 25.0154L9.89777 25.9108ZM9.93905 25.9666C9.94151 25.9708 9.94461 25.9762 9.95461 25.9939C9.96274 26.0083 9.97589 26.0316 9.99082 26.0563C10.0169 26.0994 10.0721 26.1876 10.1567 26.2714L11.1501 25.2683C11.1623 25.2804 11.1718 25.291 11.1786 25.2991C11.1854 25.3072 11.1904 25.3138 11.1935 25.3182C11.1967 25.3226 11.1987 25.3255 11.1994 25.3266C11.2001 25.3276 11.1999 25.3275 11.1988 25.3256C11.1977 25.3237 11.1959 25.3208 11.1934 25.3163C11.1907 25.3117 11.1878 25.3066 11.1838 25.2995C11.1803 25.2933 11.1751 25.2841 11.1701 25.2753C11.1649 25.2663 11.1585 25.2552 11.1514 25.2432L9.93905 25.9666ZM10.1567 26.2714C10.1408 26.2556 10.1297 26.2425 10.1235 26.2349C10.1203 26.2309 10.1179 26.2278 10.1164 26.2259C10.1157 26.2249 10.1151 26.2242 10.1148 26.2237C10.1146 26.2234 10.1145 26.2232 10.1144 26.2231C10.1143 26.2231 10.1143 26.223 10.1143 26.223C10.1143 26.223 10.1142 26.2229 10.1142 26.2229C10.1142 26.2229 10.1143 26.223 10.1143 26.223C10.1143 26.223 10.1143 26.2231 10.1144 26.2231C10.1145 26.2232 10.1146 26.2234 10.1147 26.2237C10.1151 26.2241 10.1156 26.2248 10.1162 26.2258C10.1177 26.2279 10.1194 26.2303 10.122 26.2342C10.1263 26.2405 10.1352 26.2537 10.1446 26.2669C10.1625 26.2924 10.1978 26.3414 10.2467 26.3927C10.2969 26.4452 10.3752 26.5151 10.486 26.5699L11.1125 25.3048C11.1921 25.3442 11.2429 25.3917 11.2677 25.4177C11.2806 25.4312 11.2895 25.442 11.294 25.4478C11.2985 25.4535 11.3005 25.4565 11.2991 25.4545C11.2973 25.4519 11.2952 25.4489 11.2886 25.4391C11.2832 25.4312 11.2737 25.4174 11.2632 25.4025C11.2523 25.3874 11.2376 25.3674 11.2197 25.3453C11.2018 25.3233 11.1787 25.2966 11.1501 25.2683L10.1567 26.2714ZM17.0222 27.2595C17.0577 27.1635 17.1324 27.067 17.3003 26.8397L16.1649 26.0008C16.0617 26.1404 15.821 26.4367 15.6978 26.7708L17.0222 27.2595ZM17.3003 26.8397C17.3149 26.82 17.4072 26.703 17.4678 26.6011L16.254 25.8801C16.2543 25.8796 16.2529 25.882 16.2488 25.8879C16.2448 25.8938 16.2392 25.9016 16.2313 25.9124C16.2231 25.9234 16.2144 25.935 16.2028 25.9502C16.1922 25.9643 16.1785 25.9824 16.1649 26.0008L17.3003 26.8397ZM17.4678 26.6011C17.4891 26.5651 17.5063 26.5324 17.518 26.5096C17.5236 26.4986 17.5295 26.4869 17.5333 26.4795C17.5377 26.4709 17.5406 26.4651 17.5432 26.4603C17.5547 26.4383 17.5463 26.4583 17.522 26.4869L16.4447 25.5745C16.3671 25.6661 16.3183 25.756 16.2923 25.8058C16.2827 25.8242 16.2643 25.8606 16.2622 25.8646C16.2553 25.8779 16.2535 25.881 16.254 25.8801L17.4678 26.6011ZM17.522 26.4869C17.5218 26.4872 17.5233 26.4854 17.5278 26.4807C17.5325 26.4759 17.539 26.4694 17.5494 26.4594C17.5546 26.4544 17.5601 26.4492 17.5667 26.4428C17.573 26.4368 17.5807 26.4295 17.5884 26.4222C17.6038 26.4073 17.623 26.3887 17.6435 26.3678L16.6343 25.3805C16.618 25.3971 16.6087 25.4054 16.57 25.4426C16.539 25.4725 16.4924 25.5182 16.4447 25.5745L17.522 26.4869ZM17.6435 26.3678C17.722 26.2875 17.7773 26.2046 17.8048 26.1629C17.8124 26.1513 17.8197 26.1401 17.8254 26.1313C17.8315 26.1218 17.8359 26.1151 17.8401 26.1086C17.8487 26.0956 17.8514 26.0921 17.8509 26.0927L16.721 25.2462C16.6961 25.2795 16.6752 25.3107 16.6605 25.3331C16.653 25.3444 16.6458 25.3555 16.6403 25.364C16.6344 25.3732 16.63 25.38 16.6259 25.3862C16.6219 25.3923 16.6191 25.3964 16.6171 25.3993C16.6151 25.4022 16.6143 25.4032 16.6146 25.4029C16.6147 25.4027 16.6214 25.3937 16.6343 25.3805L17.6435 26.3678ZM17.8509 26.0927C17.9217 25.9982 17.9627 25.9044 17.9774 25.8715C17.9895 25.8443 17.989 25.845 17.9934 25.8353C17.9955 25.8309 17.9918 25.8393 17.9837 25.8532L16.7658 25.1391C16.7415 25.1807 16.7234 25.2181 16.7117 25.2434C16.7058 25.2563 16.7005 25.2682 16.6967 25.2768C16.692 25.2875 16.6905 25.291 16.6877 25.2973C16.6829 25.3081 16.6837 25.3056 16.6876 25.2983C16.6918 25.2904 16.7026 25.2708 16.721 25.2462L17.8509 26.0927ZM17.9837 25.8532C18.0315 25.7717 18.0781 25.6867 18.1215 25.6006L16.8613 24.9643C16.832 25.0223 16.7997 25.0814 16.7658 25.1391L17.9837 25.8532ZM18.1215 25.6006C18.1554 25.5335 18.2015 25.4647 18.2737 25.3731L17.1653 24.4988C17.0627 24.6287 16.9541 24.7804 16.8613 24.9643L18.1215 25.6006ZM18.2737 25.3731C18.2825 25.362 18.29 25.3516 18.2902 25.3514C18.2924 25.3484 18.2948 25.3451 18.2963 25.343C18.2999 25.3381 18.3033 25.3335 18.3071 25.3283C18.3152 25.3174 18.3225 25.3078 18.3281 25.3008C18.3374 25.2891 18.3302 25.2995 18.3109 25.3184C18.3051 25.3242 18.2681 25.3612 18.2088 25.3988C18.1802 25.4169 18.1133 25.4567 18.0178 25.482C17.9231 25.5071 17.7257 25.5363 17.5135 25.4251L18.1691 24.1747C17.9546 24.0623 17.7542 24.0914 17.6561 24.1174C17.5571 24.1436 17.4863 24.1853 17.4533 24.2062C17.3852 24.2494 17.3377 24.2955 17.3201 24.3127C17.2776 24.3546 17.2426 24.3977 17.2248 24.4199C17.2033 24.4468 17.1842 24.4724 17.1715 24.4895C17.1458 24.5245 17.1586 24.5072 17.1653 24.4988L18.2737 25.3731ZM17.5135 25.4251C17.4618 25.398 17.4235 25.3693 17.3989 25.3489C17.3738 25.3281 17.3552 25.3094 17.3436 25.2971C17.3317 25.2844 17.323 25.2741 17.3182 25.2682C17.3132 25.2621 17.31 25.2579 17.3095 25.2571C17.3091 25.2566 17.3091 25.2566 17.3121 25.2607C17.3142 25.2635 17.3195 25.2707 17.3253 25.2784C17.3312 25.2862 17.3407 25.2986 17.3524 25.3127C17.3638 25.3264 17.3819 25.3474 17.4055 25.3708L18.3989 24.3677C18.4181 24.3867 18.4317 24.4025 18.4384 24.4106C18.4455 24.4192 18.4502 24.4254 18.4512 24.4267C18.4522 24.428 18.4525 24.4285 18.4495 24.4244C18.4475 24.4216 18.4424 24.4147 18.4368 24.4073C18.4271 24.3944 18.4033 24.3631 18.371 24.3288C18.3541 24.3109 18.3301 24.2871 18.2997 24.2618C18.2698 24.237 18.2261 24.2046 18.1691 24.1747L17.5135 25.4251ZM17.4055 25.3708C17.4322 25.3972 17.4567 25.4189 17.4734 25.4334C17.4817 25.4407 17.4898 25.4476 17.4953 25.4523C17.5015 25.4576 17.5052 25.4608 17.5085 25.4637C17.5151 25.4694 17.5135 25.4683 17.5086 25.4634C17.5033 25.4582 17.4918 25.4462 17.4779 25.4281L18.5987 24.5696C18.5351 24.4867 18.4684 24.4277 18.4368 24.4C18.4282 24.3926 18.42 24.3855 18.4142 24.3806C18.4078 24.375 18.4039 24.3717 18.4004 24.3686C18.3933 24.3625 18.3945 24.3633 18.3989 24.3677L17.4055 25.3708ZM17.4779 25.4281C17.5199 25.4829 17.5471 25.5242 17.6094 25.6109C17.6628 25.6851 17.7337 25.7804 17.8227 25.8751L18.8513 24.9081C18.8265 24.8817 18.7983 24.8461 18.7559 24.7871C18.7224 24.7405 18.6572 24.646 18.5987 24.5696L17.4779 25.4281ZM17.8227 25.8751C17.8386 25.8919 17.8584 25.9174 17.8937 25.9725C17.9169 26.0086 17.9858 26.1222 18.042 26.2035L19.2035 25.401C19.1623 25.3413 19.1478 25.3128 19.0822 25.2105C19.0287 25.1271 18.9544 25.0178 18.8513 24.9081L17.8227 25.8751ZM18.042 26.2035C18.0659 26.2382 18.0888 26.2685 18.1065 26.2916C18.1289 26.3208 18.1344 26.3276 18.1483 26.3461C18.1693 26.3739 18.1674 26.3742 18.1618 26.363L19.422 25.7267C19.3708 25.6252 19.3131 25.5458 19.2752 25.4957C19.2258 25.4301 19.2216 25.4273 19.2035 25.401L18.042 26.2035ZM18.1618 26.363C18.2183 26.4749 18.289 26.5584 18.3186 26.5931C18.3272 26.6032 18.3355 26.6129 18.3414 26.6196C18.3479 26.6272 18.352 26.6319 18.3556 26.6362C18.3631 26.645 18.3613 26.6433 18.3561 26.6362L19.5011 25.8103C19.4746 25.7736 19.4491 25.7429 19.432 25.7227C19.4233 25.7125 19.4149 25.7027 19.4089 25.6959C19.4022 25.6881 19.3981 25.6833 19.3943 25.6788C19.3865 25.6696 19.3874 25.6703 19.3916 25.6761C19.396 25.6821 19.4083 25.6996 19.422 25.7267L18.1618 26.363ZM18.3561 26.6362C18.4221 26.7276 18.5149 26.8337 18.5378 26.8616L19.6292 25.9661C19.5457 25.8643 19.5343 25.8563 19.5011 25.8103L18.3561 26.6362ZM18.5378 26.8616C18.554 26.8814 18.5614 26.8911 18.566 26.8974C18.5697 26.9024 18.5734 26.9079 18.579 26.9174L19.7914 26.194C19.7343 26.0984 19.682 26.0305 19.6292 25.9661L18.5378 26.8616ZM18.579 26.9174C18.5815 26.9215 18.5846 26.927 18.5946 26.9446C18.6027 26.959 18.6159 26.9823 18.6308 27.007C18.6569 27.0501 18.7121 27.1383 18.7967 27.2221L19.7901 26.219C19.8023 26.2311 19.8118 26.2417 19.8186 26.2498C19.8254 26.258 19.8304 26.2646 19.8335 26.2689C19.8367 26.2733 19.8387 26.2763 19.8394 26.2773C19.8401 26.2784 19.8399 26.2782 19.8388 26.2763C19.8377 26.2745 19.8359 26.2716 19.8334 26.2671C19.8307 26.2625 19.8278 26.2573 19.8238 26.2503C19.8203 26.244 19.8151 26.2348 19.8101 26.2261C19.8049 26.217 19.7985 26.2059 19.7914 26.194L18.579 26.9174ZM18.7967 27.2221C18.7808 27.2064 18.7697 27.1933 18.7635 27.1856C18.7603 27.1816 18.7579 27.1785 18.7564 27.1766C18.7557 27.1756 18.7551 27.1749 18.7548 27.1744C18.7546 27.1742 18.7545 27.174 18.7544 27.1738C18.7543 27.1738 18.7543 27.1737 18.7543 27.1737C18.7543 27.1737 18.7542 27.1737 18.7542 27.1737C18.7542 27.1737 18.7543 27.1737 18.7543 27.1737C18.7543 27.1737 18.7543 27.1738 18.7544 27.1738C18.7545 27.174 18.7546 27.1741 18.7547 27.1744C18.7551 27.1749 18.7556 27.1756 18.7562 27.1765C18.7577 27.1786 18.7594 27.1811 18.762 27.1849C18.7663 27.1912 18.7752 27.2044 18.7846 27.2177C18.8025 27.2431 18.8378 27.2921 18.8867 27.3434C18.9369 27.3959 19.0152 27.4658 19.126 27.5207L19.7525 26.2555C19.8321 26.2949 19.8829 26.3424 19.9077 26.3684C19.9207 26.3819 19.9295 26.3928 19.934 26.3985C19.9385 26.4042 19.9405 26.4072 19.9391 26.4053C19.9373 26.4026 19.9352 26.3996 19.9286 26.3898C19.9232 26.3819 19.9137 26.3681 19.9032 26.3533C19.8923 26.3381 19.8776 26.3181 19.8597 26.2961C19.8419 26.274 19.8187 26.2473 19.7901 26.219L18.7967 27.2221ZM12.2222 31.0624C12.2577 30.9664 12.3324 30.8699 12.5003 30.6426L11.3649 29.8037C11.2617 29.9434 11.021 30.2396 10.8978 30.5737L12.2222 31.0624ZM12.5003 30.6426C12.5149 30.6229 12.6072 30.506 12.6678 30.404L11.454 29.683C11.4543 29.6825 11.4529 29.6849 11.4488 29.6908C11.4448 29.6967 11.4392 29.7045 11.4313 29.7153C11.4231 29.7264 11.4144 29.7379 11.4028 29.7532C11.3922 29.7672 11.3785 29.7853 11.3649 29.8037L12.5003 30.6426ZM12.6678 30.404C12.6891 30.3681 12.7063 30.3353 12.718 30.3125C12.7236 30.3015 12.7295 30.2898 12.7333 30.2824C12.7377 30.2738 12.7406 30.2681 12.7432 30.2632C12.7547 30.2412 12.7463 30.2612 12.722 30.2898L11.6447 29.3775C11.5671 29.4691 11.5183 29.559 11.4923 29.6087C11.4827 29.6271 11.4643 29.6635 11.4622 29.6675C11.4553 29.6808 11.4535 29.6839 11.454 29.683L12.6678 30.404ZM12.722 30.2898C12.7218 30.2901 12.7233 30.2883 12.7278 30.2837C12.7325 30.2788 12.739 30.2723 12.7494 30.2623C12.7546 30.2573 12.7601 30.2521 12.7667 30.2457C12.773 30.2397 12.7807 30.2325 12.7884 30.2251C12.8038 30.2102 12.823 30.1916 12.8435 30.1707L11.8343 29.1835C11.818 29.2001 11.8087 29.2083 11.77 29.2455C11.739 29.2754 11.6924 29.3211 11.6447 29.3775L12.722 30.2898ZM12.8435 30.1707C12.922 30.0904 12.9773 30.0075 13.0048 29.9658C13.0124 29.9542 13.0197 29.943 13.0254 29.9342C13.0315 29.9248 13.0359 29.918 13.0401 29.9116C13.0487 29.8985 13.0514 29.895 13.0509 29.8956L11.921 29.0491C11.8961 29.0825 11.8752 29.1136 11.8605 29.136C11.853 29.1473 11.8458 29.1585 11.8403 29.1669C11.8344 29.1761 11.83 29.1829 11.8259 29.1891C11.8219 29.1952 11.8191 29.1993 11.8171 29.2023C11.8151 29.2052 11.8143 29.2062 11.8146 29.2058C11.8147 29.2056 11.8214 29.1966 11.8343 29.1835L12.8435 30.1707ZM13.0509 29.8956C13.1217 29.8011 13.1627 29.7073 13.1774 29.6744C13.1895 29.6473 13.189 29.6479 13.1934 29.6383C13.1955 29.6339 13.1918 29.6422 13.1837 29.6561L11.9658 28.9421C11.9415 28.9836 11.9234 29.021 11.9117 29.0463C11.9058 29.0593 11.9005 29.0711 11.8967 29.0798C11.892 29.0904 11.8905 29.0939 11.8877 29.1002C11.8829 29.111 11.8837 29.1085 11.8876 29.1012C11.8918 29.0933 11.9026 29.0737 11.921 29.0491L13.0509 29.8956ZM13.1837 29.6561C13.2315 29.5746 13.2781 29.4896 13.3215 29.4035L12.0613 28.7673C12.032 28.8252 11.9997 28.8843 11.9658 28.9421L13.1837 29.6561ZM13.3215 29.4035C13.3554 29.3365 13.4015 29.2676 13.4737 29.176L12.3653 28.3017C12.2627 28.4317 12.1541 28.5833 12.0613 28.7673L13.3215 29.4035ZM13.4737 29.176C13.4825 29.1649 13.49 29.1546 13.4902 29.1543C13.4924 29.1513 13.4948 29.148 13.4963 29.1459C13.4999 29.141 13.5033 29.1364 13.5071 29.1312C13.5152 29.1203 13.5225 29.1107 13.5281 29.1037C13.5374 29.092 13.5302 29.1024 13.5109 29.1213C13.5051 29.1271 13.4681 29.1641 13.4088 29.2017C13.3802 29.2198 13.3133 29.2596 13.2178 29.2849C13.1231 29.31 12.9257 29.3392 12.7135 29.228L13.3691 27.9776C13.1546 27.8652 12.9542 27.8943 12.8561 27.9203C12.7571 27.9465 12.6863 27.9882 12.6533 28.0091C12.5852 28.0523 12.5377 28.0984 12.5201 28.1157C12.4776 28.1576 12.4426 28.2006 12.4248 28.2228C12.4033 28.2498 12.3842 28.2754 12.3715 28.2925C12.3458 28.3274 12.3586 28.3101 12.3653 28.3017L13.4737 29.176ZM12.7135 29.228C12.6618 29.2009 12.6235 29.1722 12.5989 29.1518C12.5738 29.131 12.5552 29.1123 12.5436 29.1C12.5317 29.0873 12.523 29.077 12.5182 29.0711C12.5132 29.065 12.51 29.0608 12.5094 29.06C12.509 29.0595 12.5091 29.0595 12.5121 29.0636C12.5141 29.0664 12.5195 29.0736 12.5253 29.0813C12.5312 29.0891 12.5406 29.1015 12.5524 29.1156C12.5638 29.1293 12.5819 29.1503 12.6055 29.1737L13.5989 28.1706C13.6181 28.1896 13.6317 28.2055 13.6384 28.2135C13.6455 28.2221 13.6502 28.2283 13.6512 28.2297C13.6522 28.2309 13.6525 28.2314 13.6495 28.2273C13.6475 28.2246 13.6424 28.2176 13.6368 28.2102C13.6271 28.1973 13.6033 28.166 13.571 28.1318C13.5541 28.1138 13.5302 28.09 13.4997 28.0647C13.4698 28.04 13.4261 28.0075 13.3691 27.9776L12.7135 29.228ZM12.6055 29.1737C12.6322 29.2001 12.6567 29.2219 12.6734 29.2363C12.6817 29.2436 12.6898 29.2505 12.6953 29.2552C12.7015 29.2605 12.7052 29.2638 12.7085 29.2666C12.7151 29.2724 12.7135 29.2712 12.7086 29.2664C12.7033 29.2611 12.6918 29.2491 12.6779 29.231L13.7987 28.3725C13.7351 28.2896 13.6684 28.2306 13.6368 28.2029C13.6282 28.1955 13.62 28.1884 13.6142 28.1835C13.6077 28.1779 13.6039 28.1746 13.6004 28.1716C13.5933 28.1654 13.5945 28.1662 13.5989 28.1706L12.6055 29.1737ZM12.6779 29.231C12.7199 29.2858 12.7471 29.3271 12.8094 29.4138C12.8627 29.4881 12.9337 29.5833 13.0227 29.678L14.0513 28.711C14.0265 28.6846 13.9983 28.649 13.9559 28.59C13.9224 28.5434 13.8572 28.4489 13.7987 28.3725L12.6779 29.231ZM13.0227 29.678C13.0386 29.6948 13.0584 29.7204 13.0937 29.7754C13.1169 29.8116 13.1858 29.9251 13.242 30.0064L14.4035 29.204C14.3623 29.1442 14.3478 29.1157 14.2822 29.0134C14.2287 28.93 14.1544 28.8207 14.0513 28.711L13.0227 29.678ZM13.242 30.0064C13.2659 30.0411 13.2888 30.0714 13.3064 30.0945C13.3289 30.1237 13.3344 30.1305 13.3483 30.149C13.3693 30.1768 13.3674 30.1771 13.3618 30.1659L14.622 29.5296C14.5708 29.4281 14.5131 29.3488 14.4753 29.2986C14.4258 29.233 14.4216 29.2302 14.4035 29.204L13.242 30.0064ZM13.3618 30.1659C13.4183 30.2778 13.489 30.3613 13.5186 30.396C13.5272 30.4061 13.5355 30.4158 13.5414 30.4226C13.5479 30.4301 13.552 30.4348 13.5556 30.4391C13.5631 30.4479 13.5613 30.4463 13.5561 30.4391L14.7011 29.6132C14.6746 29.5765 14.6491 29.5458 14.632 29.5257C14.6233 29.5154 14.6149 29.5057 14.6089 29.4988C14.6022 29.491 14.5981 29.4862 14.5943 29.4817C14.5865 29.4726 14.5874 29.4732 14.5916 29.479C14.596 29.485 14.6083 29.5025 14.622 29.5296L13.3618 30.1659ZM13.5561 30.4391C13.6221 30.5305 13.7149 30.6366 13.7378 30.6645L14.8292 29.769C14.7457 29.6673 14.7343 29.6592 14.7011 29.6132L13.5561 30.4391ZM13.7378 30.6645C13.754 30.6843 13.7614 30.694 13.766 30.7003C13.7697 30.7053 13.7734 30.7108 13.779 30.7203L14.9914 29.9969C14.9344 29.9013 14.882 29.8334 14.8292 29.769L13.7378 30.6645ZM13.779 30.7203C13.7815 30.7244 13.7846 30.7299 13.7946 30.7476C13.8027 30.762 13.8159 30.7852 13.8308 30.8099C13.8569 30.853 13.9121 30.9412 13.9967 31.0251L14.9901 30.022C15.0023 30.034 15.0118 30.0446 15.0186 30.0527C15.0254 30.0609 15.0304 30.0675 15.0335 30.0718C15.0367 30.0762 15.0387 30.0792 15.0394 30.0802C15.0401 30.0813 15.0399 30.0811 15.0388 30.0792C15.0377 30.0774 15.0359 30.0745 15.0334 30.07C15.0307 30.0654 15.0278 30.0602 15.0238 30.0532C15.0203 30.0469 15.0151 30.0378 15.0101 30.029C15.0049 30.0199 14.9985 30.0088 14.9914 29.9969L13.779 30.7203ZM13.9967 31.0251C13.9808 31.0093 13.9697 30.9962 13.9635 30.9885C13.9603 30.9846 13.9579 30.9815 13.9564 30.9795C13.9557 30.9786 13.9551 30.9778 13.9548 30.9773C13.9546 30.9771 13.9545 30.9769 13.9544 30.9768C13.9543 30.9767 13.9543 30.9767 13.9543 30.9766C13.9543 30.9766 13.9542 30.9766 13.9542 30.9766C13.9542 30.9766 13.9543 30.9766 13.9543 30.9766C13.9543 30.9767 13.9543 30.9767 13.9544 30.9768C13.9545 30.9769 13.9546 30.9771 13.9547 30.9773C13.9551 30.9778 13.9556 30.9785 13.9562 30.9794C13.9577 30.9815 13.9594 30.984 13.962 30.9879C13.9663 30.9942 13.9752 31.0073 13.9846 31.0206C14.0025 31.0461 14.0378 31.095 14.0867 31.1463C14.1369 31.1988 14.2152 31.2687 14.326 31.3236L14.9525 30.0584C15.0321 30.0978 15.0829 30.1453 15.1077 30.1713C15.1207 30.1848 15.1295 30.1957 15.134 30.2014C15.1385 30.2071 15.1405 30.2102 15.1392 30.2082C15.1373 30.2055 15.1352 30.2025 15.1286 30.1927C15.1232 30.1848 15.1137 30.171 15.1032 30.1562C15.0923 30.141 15.0776 30.121 15.0597 30.099C15.0419 30.0769 15.0187 30.0502 14.9901 30.022L13.9967 31.0251Z" fill="black"/>
</svg>
